<svg width="278" height="72" viewBox="0 0 278 72" fill="none" xmlns="http://www.w3.org/2000/svg">
<g filter="url(#filter0_d)">
<path fill-rule="evenodd" clip-rule="evenodd" d="M33.4141 8L8 19.8025V63.7076H133.342H147.269H245.062L270 51.9052V8H147.269H133.342H33.4141Z" fill="#02D7F2" fill-opacity="0.06" shape-rendering="crispEdges"/>
<path d="M8 19.8025L7.63337 19.013L7.12957 19.247V19.8025H8ZM33.4141 8V7.12957H33.2218L33.0474 7.21055L33.4141 8ZM8 63.7076H7.12957V64.5781H8V63.7076ZM245.062 63.7076V64.5781H245.258L245.435 64.4944L245.062 63.7076ZM270 51.9052L270.372 52.6919L270.87 52.4562V51.9052H270ZM270 8H270.87V7.12957H270V8ZM8.36663 20.5919L33.7807 8.78945L33.0474 7.21055L7.63337 19.013L8.36663 20.5919ZM8.87043 63.7076V19.8025H7.12957V63.7076H8.87043ZM133.342 62.8372H8V64.5781H133.342V62.8372ZM147.269 62.8372H133.342V64.5781H147.269V62.8372ZM245.062 62.8372H147.269V64.5781H245.062V62.8372ZM269.628 51.1184L244.69 62.9209L245.435 64.4944L270.372 52.6919L269.628 51.1184ZM269.13 8V51.9052H270.87V8H269.13ZM147.269 8.87043H270V7.12957H147.269V8.87043ZM133.342 8.87043H147.269V7.12957H133.342V8.87043ZM33.4141 8.87043H133.342V7.12957H33.4141V8.87043Z" fill="#02D7F2"/>
</g>
<defs>
<filter id="filter0_d" x="0.166428" y="0.166122" width="277.668" height="71.3754" filterUnits="userSpaceOnUse" color-interpolation-filters="sRGB">
<feFlood flood-opacity="0" result="BackgroundImageFix"/>
<feColorMatrix in="SourceAlpha" type="matrix" values="0 0 0 0 0 0 0 0 0 0 0 0 0 0 0 0 0 0 127 0" result="hardAlpha"/>
<feOffset/>
<feGaussianBlur stdDeviation="3.48173"/>
<feComposite in2="hardAlpha" operator="out"/>
<feColorMatrix type="matrix" values="0 0 0 0 0.00784314 0 0 0 0 0.843137 0 0 0 0 0.94902 0 0 0 1 0"/>
<feBlend mode="normal" in2="BackgroundImageFix" result="effect1_dropShadow"/>
<feBlend mode="normal" in="SourceGraphic" in2="effect1_dropShadow" result="shape"/>
</filter>
</defs>
</svg>
