<svg width="8" height="8" viewBox="0 0 8 8" fill="none" xmlns="http://www.w3.org/2000/svg">
<path d="M0.125 3.90857C0.143062 4.34401 0.256394 4.77197 0.458497 5.16798C0.6606 5.56399 0.947506 5.92028 1.30283 6.21646C1.65815 6.51264 2.0749 6.7429 2.52924 6.89408C2.98359 7.04526 3.4666 7.1144 3.95068 7.09752C4.89086 7.06129 5.77731 6.6933 6.41796 6.07329C7.05861 5.45327 7.40187 4.63118 7.37336 3.78511C7.36289 3.34898 7.25583 2.9191 7.05845 2.52062C6.86107 2.12215 6.57733 1.76308 6.22382 1.46443C5.87031 1.16578 5.45412 0.933544 4.99963 0.7813C4.54514 0.629056 4.06146 0.559866 3.57688 0.57778C2.6429 0.644691 1.7706 1.02369 1.13173 1.64014C0.492862 2.2566 0.133718 3.06585 0.125 3.90857ZM2.42917 3.79299C2.45546 2.99182 2.98405 2.62669 3.87184 2.65296C4.04186 2.64488 4.21189 2.66865 4.37117 2.72276C4.53045 2.77688 4.6755 2.86016 4.79713 2.96734C4.91875 3.07451 5.0143 3.20325 5.07772 3.34537C5.14114 3.4875 5.17105 3.63992 5.16556 3.79299C5.18356 3.96328 5.16159 4.13508 5.10109 4.29725C5.04058 4.45942 4.94288 4.60835 4.81431 4.7344C4.68574 4.86044 4.52917 4.96079 4.35474 5.02894C4.18031 5.0971 3.9919 5.13154 3.80173 5.13004C2.96943 5.13792 2.44378 4.6362 2.42917 3.77986V3.79299Z" fill="#F337F8"/>
</svg>
