<svg width="58" height="58" viewBox="0 0 58 58" fill="none" xmlns="http://www.w3.org/2000/svg">
<path d="M29.868 13.3267C29.868 12.1969 29.9203 11.2898 29.868 10.3881C29.7522 8.83499 29.8156 7.51827 31.9898 8.00482C32.2667 8.05674 32.5526 8.03202 32.8165 7.93335C33.4337 7.6997 36.1232 1.28374 35.8669 0.68448C35.6107 0.0852177 35.0402 0.0164928 34.445 0.0164928C25.9027 0.0164928 17.341 0.0384847 8.78764 0C7.24174 0 7.13428 0.824672 7.5118 1.90224C8.12354 3.62581 8.88961 5.2889 9.52891 7.00697C9.96154 8.19725 10.9067 8.08455 11.805 7.99933C12.9982 7.88387 13.3757 8.29896 13.3564 9.51123C13.2875 13.5989 13.2985 17.692 13.3564 21.7796C13.3564 22.7775 12.9982 23.297 12.1688 23.7533C9.88161 25.0123 7.64406 26.3565 5.37345 27.6458C4.42828 28.1956 3.30401 28.8471 3.36188 29.9219C3.48037 32.0248 2.15767 33.0996 0.837738 34.2184C-0.15152 35.0568 -0.236935 35.7963 0.435432 36.9234C3.4225 41.952 6.35536 47.0118 9.23404 52.1028C9.78516 53.0979 10.4438 53.4773 11.5929 53.3921C13.4446 53.2739 15.2826 52.8945 17.1041 54.0793C18.2063 54.7995 19.5235 54.0793 20.6863 53.4086C28.1264 49.0928 35.6161 44.8457 43.037 40.4887C44.6903 39.5238 46.3878 39.1335 48.2203 38.8613C49.6229 38.6524 49.5567 39.1692 49.2894 40.2056C47.9695 45.3213 46.6964 50.448 45.4096 55.572C44.8584 57.8096 44.9852 57.9773 47.3385 57.9828C50.309 57.9828 53.2768 57.9498 56.2446 57.9992C57.5094 58.0212 58.0082 57.5649 57.9999 56.2702C57.9558 49.9229 58.033 43.5757 57.953 37.2312C57.9117 34.0095 56.2997 31.6235 53.4697 30.0676C53.2927 29.9527 53.102 29.8603 52.902 29.7927C47.5507 28.443 44.2908 24.8666 42.2213 19.9543C41.7336 18.7943 40.8656 17.7964 40.3503 16.6556C38.4131 12.3976 35.302 10.8335 29.868 13.3267ZM29.868 15.8255L30.488 15.6715C34.6379 22.8535 38.7915 30.0364 42.9488 37.2202C43.6019 38.3473 42.6402 38.5397 42.0284 38.8943C37.208 41.689 32.382 44.4709 27.5505 47.24C26.0845 48.0839 24.5028 49.6838 23.1416 49.5161C21.5433 49.3209 21.163 46.8964 20.2895 45.4285C16.9828 39.8592 13.8111 34.2047 10.4934 28.6381C9.19273 26.4583 11.3807 26.6534 12.166 25.925C12.8797 25.2625 13.4446 25.1415 14.0674 26.2988C16.2305 30.3205 19.7687 31.9203 23.712 30.8703C27.5285 29.8532 29.8404 26.5462 29.8597 22.06C29.89 19.9818 29.8818 17.9036 29.8818 15.8365L29.868 15.8255ZM15.1889 16.1773V11.9495C15.1889 7.89762 15.1889 7.9471 19.179 8.03506C20.3033 8.0598 20.634 8.36493 20.5926 9.46999C20.51 11.5784 20.5568 13.6951 20.5761 15.809C20.5761 16.6336 20.3667 17.7332 21.6067 17.7332C22.6676 17.7112 22.516 16.6721 22.5243 15.9189C22.5436 14.5087 22.5243 13.1013 22.5243 11.6911C22.5243 8.02132 22.5243 8.09554 26.1672 8.04056C27.5753 8.01857 27.9335 8.4364 27.906 9.80261C27.8178 14.0964 27.906 18.3957 27.8591 22.6922C27.8178 26.5407 25.2027 29.2182 21.5819 29.2264C17.961 29.2347 15.2991 26.5187 15.2027 22.7417C15.1613 20.5453 15.2054 18.36 15.2027 16.1773H15.1889ZM48.099 29.757C49.3005 30.2655 50.1189 30.6531 50.9621 30.961C54.6215 32.2914 56.228 34.8754 56.1426 38.7569C56.0296 43.9798 56.0875 49.1862 56.1426 54.4009C56.1426 55.5857 55.9525 56.196 54.5471 56.207C53.1418 56.2179 52.8938 55.5472 52.9682 54.3927C53.004 53.76 53.004 53.1258 52.9682 52.4932C52.9434 51.8994 52.8194 51.2974 52.0506 51.3524C51.3313 51.4019 51.1991 51.9791 51.1991 52.5839C51.1991 53.3591 51.2294 54.137 51.1991 54.9095C51.0751 57.2103 49.317 55.9541 48.3167 56.1052C46.9389 56.3142 47.4019 55.2806 47.581 54.5576C48.4352 51.1435 49.0359 47.6386 50.2153 44.3372C51.9155 39.5898 52.2986 35.186 48.7218 31.1149C48.4931 30.8675 48.4242 30.4882 48.1128 29.757H48.099ZM14.1969 51.0775C11.1933 51.4568 11.1878 51.4596 9.78792 49.046C7.63855 45.335 5.59389 41.5553 3.30123 37.9322C2.14663 36.1097 2.19902 34.9331 4.29327 33.9628L14.1969 51.0775Z" fill="#02D7F2"/>
</svg>
