<svg width="36" height="36" viewBox="0 0 36 36" fill="none" xmlns="http://www.w3.org/2000/svg">
<path d="M18.2393 11.2546C16.8459 11.2546 15.4839 11.6683 14.3254 12.4434C13.1669 13.2185 12.264 14.3201 11.7308 15.609C11.1976 16.898 11.0581 18.3163 11.3299 19.6846C11.6017 21.0529 12.2726 22.3098 13.2579 23.2963C14.2431 24.2828 15.4983 24.9546 16.8649 25.2267C18.2314 25.4989 19.6479 25.3592 20.9352 24.8253C22.2224 24.2915 23.3227 23.3873 24.0967 22.2273C24.8708 21.0673 25.284 19.7036 25.284 18.3084C25.284 16.4376 24.5418 14.6435 23.2206 13.3206C21.8995 11.9978 20.1076 11.2546 18.2393 11.2546ZM18.2393 21.8354C17.5426 21.8354 16.8616 21.6285 16.2823 21.241C15.7031 20.8534 15.2516 20.3026 14.985 19.6581C14.7184 19.0137 14.6487 18.3045 14.7846 17.6204C14.9205 16.9362 15.256 16.3078 15.7486 15.8145C16.2412 15.3213 16.8688 14.9854 17.5521 14.8493C18.2353 14.7132 18.9436 14.783 19.5872 15.05C20.2308 15.3169 20.781 15.769 21.168 16.349C21.555 16.929 21.7616 17.6109 21.7616 18.3084C21.7616 19.2438 21.3905 20.1409 20.7299 20.8023C20.0694 21.4638 19.1734 21.8354 18.2393 21.8354ZM35.3404 17.0564L31.2016 13.018V7.09281C31.2016 6.62511 31.016 6.17656 30.6857 5.84585C30.3555 5.51514 29.9075 5.32934 29.4404 5.32934H23.6109L19.4897 1.1852C19.326 1.01992 19.1312 0.888725 18.9166 0.799197C18.702 0.709668 18.4718 0.663574 18.2393 0.663574C18.0068 0.663574 17.7766 0.709668 17.5619 0.799197C17.3473 0.888725 17.1525 1.01992 16.9888 1.1852L12.9557 5.32934H7.03812C6.57102 5.32934 6.12306 5.51514 5.79277 5.84585C5.46248 6.17656 5.27693 6.62511 5.27693 7.09281V13.018L1.13814 17.0564C0.97307 17.2203 0.842048 17.4154 0.752635 17.6302C0.663222 17.8451 0.617188 18.0756 0.617188 18.3084C0.617187 18.5412 0.663222 18.7717 0.752635 18.9866C0.842048 19.2015 0.97307 19.3966 1.13814 19.5605L5.27693 23.687V29.5241C5.27693 29.9918 5.46248 30.4403 5.79277 30.771C6.12306 31.1017 6.57102 31.2875 7.03812 31.2875H12.9557L17.0769 35.4317C17.2406 35.5969 17.4354 35.7281 17.65 35.8177C17.8646 35.9072 18.0948 35.9533 18.3273 35.9533C18.5598 35.9533 18.79 35.9072 19.0046 35.8177C19.2192 35.7281 19.414 35.5969 19.5778 35.4317L23.6989 31.2875H29.5285C29.9956 31.2875 30.4435 31.1017 30.7738 30.771C31.1041 30.4403 31.2896 29.9918 31.2896 29.5241V23.687L35.4284 19.5605C35.5879 19.3908 35.7122 19.1912 35.7941 18.9731C35.876 18.755 35.914 18.5229 35.9058 18.2901C35.8976 18.0572 35.8434 17.8283 35.7464 17.6166C35.6493 17.4048 35.5113 17.2144 35.3404 17.0564ZM28.2076 21.7119C28.0412 21.8752 27.9088 22.07 27.8181 22.2849C27.7274 22.4998 27.6802 22.7307 27.6792 22.964V27.7606H22.8888C22.6558 27.7616 22.4253 27.8088 22.2106 27.8996C21.996 27.9904 21.8015 28.123 21.6383 28.2896L18.2393 31.6931L14.8402 28.2896C14.6771 28.123 14.4825 27.9904 14.2679 27.8996C14.0533 27.8088 13.8227 27.7616 13.5897 27.7606H8.7993V22.964C8.79833 22.7307 8.75113 22.4998 8.66044 22.2849C8.56974 22.07 8.43736 21.8752 8.27095 21.7119L4.87186 18.3084L8.27095 14.9049C8.43736 14.7416 8.56974 14.5469 8.66044 14.3319C8.75113 14.117 8.79833 13.8862 8.7993 13.6529V8.85627H13.5897C13.8227 8.8553 14.0533 8.80804 14.2679 8.71723C14.4825 8.62642 14.6771 8.49386 14.8402 8.32723L18.2393 4.92375L21.6383 8.32723C21.8015 8.49386 21.996 8.62642 22.2106 8.71723C22.4253 8.80804 22.6558 8.8553 22.8888 8.85627H27.6792V13.6529C27.6802 13.8862 27.7274 14.117 27.8181 14.3319C27.9088 14.5469 28.0412 14.7416 28.2076 14.9049L31.6067 18.3084L28.2076 21.7119Z" fill="#6161C1" fill-opacity="0.5"/>
</svg>
