<svg width="115" height="19" viewBox="0 0 115 19" fill="none" xmlns="http://www.w3.org/2000/svg">
<path d="M0.784843 1.2H3.56884V8.424H11.2008V1.2H13.9848V18H11.2008V10.824H3.56884V18H0.784843V1.2ZM22.6832 11.088L16.7552 1.2H19.8032L24.0512 8.496H24.0992L28.3472 1.2H31.3952L25.4672 11.088V18H22.6832V11.088ZM34.158 1.2H44.382L46.83 3.672V9.384L44.358 11.88H36.942V18H34.158V1.2ZM43.134 9.528L44.094 8.568V4.512L43.134 3.552H36.942V9.528H43.134ZM50.4227 1.2H62.1347V3.576H53.2067V8.376H61.4387V10.728H53.2067V15.624H62.1347V18H50.4227V1.2ZM72.9911 1.2H75.6551L80.7911 12.768H80.8391L85.9751 1.2H88.6631V18H85.9991V6.768H85.9511L81.7271 15.864H79.9031L75.7031 6.768H75.6551V18H72.9911V1.2ZM93.1023 1.2H95.8863V18H93.1023V1.2ZM104.709 9.336L99.1173 1.2H102.237L106.269 7.128L110.301 1.2H113.421L107.853 9.432L113.661 18H110.541L106.269 11.664L101.997 18H98.8773L104.709 9.336Z" fill="#F800FF"/>
<path d="M0.784843 1.2V0.699999H0.284843V1.2H0.784843ZM3.56884 1.2H4.06884V0.699999H3.56884V1.2ZM3.56884 8.424H3.06884V8.924H3.56884V8.424ZM11.2008 8.424V8.924H11.7008V8.424H11.2008ZM11.2008 1.2V0.699999H10.7008V1.2H11.2008ZM13.9848 1.2H14.4848V0.699999H13.9848V1.2ZM13.9848 18V18.5H14.4848V18H13.9848ZM11.2008 18H10.7008V18.5H11.2008V18ZM11.2008 10.824H11.7008V10.324H11.2008V10.824ZM3.56884 10.824V10.324H3.06884V10.824H3.56884ZM3.56884 18V18.5H4.06884V18H3.56884ZM0.784843 18H0.284843V18.5H0.784843V18ZM0.784843 1.7H3.56884V0.699999H0.784843V1.7ZM3.06884 1.2V8.424H4.06884V1.2H3.06884ZM3.56884 8.924H11.2008V7.924H3.56884V8.924ZM11.7008 8.424V1.2H10.7008V8.424H11.7008ZM11.2008 1.7H13.9848V0.699999H11.2008V1.7ZM13.4848 1.2V18H14.4848V1.2H13.4848ZM13.9848 17.5H11.2008V18.5H13.9848V17.5ZM11.7008 18V10.824H10.7008V18H11.7008ZM11.2008 10.324H3.56884V11.324H11.2008V10.324ZM3.06884 10.824V18H4.06884V10.824H3.06884ZM3.56884 17.5H0.784843V18.5H3.56884V17.5ZM1.28484 18V1.2H0.284843V18H1.28484ZM22.6832 11.088H23.1832V10.9496L23.112 10.8309L22.6832 11.088ZM16.7552 1.2V0.699999H15.8724L16.3263 1.45709L16.7552 1.2ZM19.8032 1.2L20.2353 0.948417L20.0906 0.699999H19.8032V1.2ZM24.0512 8.496L23.6191 8.74758L23.7637 8.996H24.0512V8.496ZM24.0992 8.496V8.996H24.3866L24.5312 8.74758L24.0992 8.496ZM28.3472 1.2V0.699999H28.0597L27.9151 0.948417L28.3472 1.2ZM31.3952 1.2L31.824 1.45709L32.2779 0.699999H31.3952V1.2ZM25.4672 11.088L25.0383 10.8309L24.9672 10.9496V11.088H25.4672ZM25.4672 18V18.5H25.9672V18H25.4672ZM22.6832 18H22.1832V18.5H22.6832V18ZM23.112 10.8309L17.184 0.942904L16.3263 1.45709L22.2543 11.3451L23.112 10.8309ZM16.7552 1.7H19.8032V0.699999H16.7552V1.7ZM19.3711 1.45158L23.6191 8.74758L24.4832 8.24442L20.2353 0.948417L19.3711 1.45158ZM24.0512 8.996H24.0992V7.996H24.0512V8.996ZM24.5312 8.74758L28.7793 1.45158L27.9151 0.948417L23.6671 8.24442L24.5312 8.74758ZM28.3472 1.7H31.3952V0.699999H28.3472V1.7ZM30.9663 0.942904L25.0383 10.8309L25.896 11.3451L31.824 1.45709L30.9663 0.942904ZM24.9672 11.088V18H25.9672V11.088H24.9672ZM25.4672 17.5H22.6832V18.5H25.4672V17.5ZM23.1832 18V11.088H22.1832V18H23.1832ZM34.158 1.2V0.699999H33.658V1.2H34.158ZM44.382 1.2L44.7372 0.848174L44.5905 0.699999H44.382V1.2ZM46.83 3.672H47.33V3.46632L47.1852 3.32018L46.83 3.672ZM46.83 9.384L47.1852 9.73584L47.33 9.58969V9.384H46.83ZM44.358 11.88V12.38H44.5665L44.7132 12.2318L44.358 11.88ZM36.942 11.88V11.38H36.442V11.88H36.942ZM36.942 18V18.5H37.442V18H36.942ZM34.158 18H33.658V18.5H34.158V18ZM43.134 9.528V10.028H43.3411L43.4875 9.88155L43.134 9.528ZM44.094 8.568L44.4475 8.92155L44.594 8.77511V8.568H44.094ZM44.094 4.512H44.594V4.30489L44.4475 4.15845L44.094 4.512ZM43.134 3.552L43.4875 3.19845L43.3411 3.052H43.134V3.552ZM36.942 3.552V3.052H36.442V3.552H36.942ZM36.942 9.528H36.442V10.028H36.942V9.528ZM34.158 1.7H44.382V0.699999H34.158V1.7ZM44.0267 1.55182L46.4747 4.02382L47.1852 3.32018L44.7372 0.848174L44.0267 1.55182ZM46.33 3.672V9.384H47.33V3.672H46.33ZM46.4747 9.03216L44.0027 11.5282L44.7132 12.2318L47.1852 9.73584L46.4747 9.03216ZM44.358 11.38H36.942V12.38H44.358V11.38ZM36.442 11.88V18H37.442V11.88H36.442ZM36.942 17.5H34.158V18.5H36.942V17.5ZM34.658 18V1.2H33.658V18H34.658ZM43.4875 9.88155L44.4475 8.92155L43.7404 8.21445L42.7804 9.17445L43.4875 9.88155ZM44.594 8.568V4.512H43.594V8.568H44.594ZM44.4475 4.15845L43.4875 3.19845L42.7804 3.90555L43.7404 4.86555L44.4475 4.15845ZM43.134 3.052H36.942V4.052H43.134V3.052ZM36.442 3.552V9.528H37.442V3.552H36.442ZM36.942 10.028H43.134V9.028H36.942V10.028ZM50.4227 1.2V0.699999H49.9227V1.2H50.4227ZM62.1347 1.2H62.6347V0.699999H62.1347V1.2ZM62.1347 3.576V4.076H62.6347V3.576H62.1347ZM53.2067 3.576V3.076H52.7067V3.576H53.2067ZM53.2067 8.376H52.7067V8.876H53.2067V8.376ZM61.4387 8.376H61.9387V7.876H61.4387V8.376ZM61.4387 10.728V11.228H61.9387V10.728H61.4387ZM53.2067 10.728V10.228H52.7067V10.728H53.2067ZM53.2067 15.624H52.7067V16.124H53.2067V15.624ZM62.1347 15.624H62.6347V15.124H62.1347V15.624ZM62.1347 18V18.5H62.6347V18H62.1347ZM50.4227 18H49.9227V18.5H50.4227V18ZM50.4227 1.7H62.1347V0.699999H50.4227V1.7ZM61.6347 1.2V3.576H62.6347V1.2H61.6347ZM62.1347 3.076H53.2067V4.076H62.1347V3.076ZM52.7067 3.576V8.376H53.7067V3.576H52.7067ZM53.2067 8.876H61.4387V7.876H53.2067V8.876ZM60.9387 8.376V10.728H61.9387V8.376H60.9387ZM61.4387 10.228H53.2067V11.228H61.4387V10.228ZM52.7067 10.728V15.624H53.7067V10.728H52.7067ZM53.2067 16.124H62.1347V15.124H53.2067V16.124ZM61.6347 15.624V18H62.6347V15.624H61.6347ZM62.1347 17.5H50.4227V18.5H62.1347V17.5ZM50.9227 18V1.2H49.9227V18H50.9227ZM72.9911 1.2V0.699999H72.4911V1.2H72.9911ZM75.6551 1.2L76.1121 0.997106L75.9802 0.699999H75.6551V1.2ZM80.7911 12.768L80.3341 12.9709L80.466 13.268H80.7911V12.768ZM80.8391 12.768V13.268H81.1642L81.2961 12.9709L80.8391 12.768ZM85.9751 1.2V0.699999H85.65L85.5181 0.997106L85.9751 1.2ZM88.6631 1.2H89.1631V0.699999H88.6631V1.2ZM88.6631 18V18.5H89.1631V18H88.6631ZM85.9991 18H85.4991V18.5H85.9991V18ZM85.9991 6.768H86.4991V6.268H85.9991V6.768ZM85.9511 6.768V6.268H85.632L85.4976 6.55741L85.9511 6.768ZM81.7271 15.864V16.364H82.0462L82.1806 16.0746L81.7271 15.864ZM79.9031 15.864L79.4492 16.0736L79.5832 16.364H79.9031V15.864ZM75.7031 6.768L76.157 6.55839L76.023 6.268H75.7031V6.768ZM75.6551 6.768V6.268H75.1551V6.768H75.6551ZM75.6551 18V18.5H76.1551V18H75.6551ZM72.9911 18H72.4911V18.5H72.9911V18ZM72.9911 1.7H75.6551V0.699999H72.9911V1.7ZM75.1981 1.40289L80.3341 12.9709L81.2481 12.5651L76.1121 0.997106L75.1981 1.40289ZM80.7911 13.268H80.8391V12.268H80.7911V13.268ZM81.2961 12.9709L86.4321 1.40289L85.5181 0.997106L80.3821 12.5651L81.2961 12.9709ZM85.9751 1.7H88.6631V0.699999H85.9751V1.7ZM88.1631 1.2V18H89.1631V1.2H88.1631ZM88.6631 17.5H85.9991V18.5H88.6631V17.5ZM86.4991 18V6.768H85.4991V18H86.4991ZM85.9991 6.268H85.9511V7.268H85.9991V6.268ZM85.4976 6.55741L81.2736 15.6534L82.1806 16.0746L86.4046 6.97859L85.4976 6.55741ZM81.7271 15.364H79.9031V16.364H81.7271V15.364ZM80.357 15.6544L76.157 6.55839L75.2492 6.9776L79.4492 16.0736L80.357 15.6544ZM75.7031 6.268H75.6551V7.268H75.7031V6.268ZM75.1551 6.768V18H76.1551V6.768H75.1551ZM75.6551 17.5H72.9911V18.5H75.6551V17.5ZM73.4911 18V1.2H72.4911V18H73.4911ZM93.1023 1.2V0.699999H92.6023V1.2H93.1023ZM95.8863 1.2H96.3863V0.699999H95.8863V1.2ZM95.8863 18V18.5H96.3863V18H95.8863ZM93.1023 18H92.6023V18.5H93.1023V18ZM93.1023 1.7H95.8863V0.699999H93.1023V1.7ZM95.3863 1.2V18H96.3863V1.2H95.3863ZM95.8863 17.5H93.1023V18.5H95.8863V17.5ZM93.6023 18V1.2H92.6023V18H93.6023ZM104.709 9.336L105.124 9.6152L105.314 9.33307L105.121 9.05279L104.709 9.336ZM99.1173 1.2V0.699999H98.167L98.7053 1.48321L99.1173 1.2ZM102.237 1.2L102.651 0.918798L102.502 0.699999H102.237V1.2ZM106.269 7.128L105.856 7.4092L106.269 8.01704L106.683 7.4092L106.269 7.128ZM110.301 1.2V0.699999H110.037L109.888 0.918798L110.301 1.2ZM113.421 1.2L113.836 1.48013L114.363 0.699999H113.421V1.2ZM107.853 9.432L107.439 9.15187L107.25 9.43231L107.439 9.71255L107.853 9.432ZM113.661 18V18.5H114.604L114.075 17.7194L113.661 18ZM110.541 18L110.127 18.2795L110.275 18.5H110.541V18ZM106.269 11.664L106.684 11.3845L106.269 10.7696L105.855 11.3845L106.269 11.664ZM101.997 18V18.5H102.263L102.412 18.2795L101.997 18ZM98.8773 18L98.4626 17.7208L97.9381 18.5H98.8773V18ZM105.121 9.05279L99.5294 0.916786L98.7053 1.48321L104.297 9.61921L105.121 9.05279ZM99.1173 1.7H102.237V0.699999H99.1173V1.7ZM101.824 1.4812L105.856 7.4092L106.683 6.8468L102.651 0.918798L101.824 1.4812ZM106.683 7.4092L110.715 1.4812L109.888 0.918798L105.856 6.8468L106.683 7.4092ZM110.301 1.7H113.421V0.699999H110.301V1.7ZM113.007 0.919868L107.439 9.15187L108.268 9.71213L113.836 1.48013L113.007 0.919868ZM107.439 9.71255L113.247 18.2806L114.075 17.7194L108.267 9.15145L107.439 9.71255ZM113.661 17.5H110.541V18.5H113.661V17.5ZM110.956 17.7205L106.684 11.3845L105.855 11.9435L110.127 18.2795L110.956 17.7205ZM105.855 11.3845L101.583 17.7205L102.412 18.2795L106.684 11.9435L105.855 11.3845ZM101.997 17.5H98.8773V18.5H101.997V17.5ZM99.2921 18.2792L105.124 9.6152L104.295 9.0568L98.4626 17.7208L99.2921 18.2792Z" fill="#F800FF"/>
</svg>
