<svg width="199" height="19" viewBox="0 0 199 19" fill="none" xmlns="http://www.w3.org/2000/svg">
<path d="M1.49297 15.288V3.912L4.20497 1.2H12.509L15.221 3.912V15.288L12.509 18H4.20497L1.49297 15.288ZM11.069 15.6L12.437 14.256V4.944L11.069 3.6H5.64497L4.27697 4.944V14.256L5.64497 15.6H11.069ZM19.3102 1.2H30.7822V3.576H22.0942V8.712H29.6302V11.088H22.0942V18H19.3102V1.2ZM33.9108 1.2H45.3828V3.576H36.6948V8.712H44.2308V11.088H36.6948V18H33.9108V1.2ZM47.5598 10.68H55.5278V13.032H47.5598V10.68ZM58.2848 1.2H61.0928L63.3488 13.848H63.4208L66.9968 1.2H69.2288L72.6848 13.848H72.7808L75.0128 1.2H77.8208L74.3648 18H71.6768L68.1488 5.4H68.0768L64.4288 18H61.7408L58.2848 1.2ZM81.1814 1.2H83.9654V8.424H91.5974V1.2H94.3814V18H91.5974V10.824H83.9654V18H81.1814V1.2ZM98.8317 1.2H101.616V18H98.8317V1.2ZM109.887 3.576H104.847V1.2H117.711V3.576H112.671V18H109.887V3.576ZM120.835 1.2H132.547V3.576H123.619V8.376H131.851V10.728H123.619V15.624H132.547V18H120.835V1.2ZM150.668 1.2H160.844L163.172 3.528V8.232L162.14 9.264L163.916 11.04V15.48L161.396 18H150.668V1.2ZM159.452 8.424L160.436 7.44V4.512L159.476 3.552H153.38V8.424H159.452ZM160.028 15.648L161.18 14.496V11.808L160.028 10.68H153.38V15.648H160.028ZM167.279 15.288V3.912L169.991 1.2H178.295L181.007 3.912V15.288L178.295 18H169.991L167.279 15.288ZM176.855 15.6L178.223 14.256V4.944L176.855 3.6H171.431L170.063 4.944V14.256L171.431 15.6H176.855ZM188.761 9.336L183.169 1.2H186.289L190.321 7.128L194.353 1.2H197.473L191.905 9.432L197.713 18H194.593L190.321 11.664L186.049 18H182.929L188.761 9.336Z" fill="#F800FF"/>
<path d="M1.49297 15.288H0.992971V15.4951L1.13942 15.6416L1.49297 15.288ZM1.49297 3.912L1.13942 3.55845L0.992971 3.70489V3.912H1.49297ZM4.20497 1.2V0.699999H3.99786L3.85142 0.846446L4.20497 1.2ZM12.509 1.2L12.8625 0.846446L12.7161 0.699999H12.509V1.2ZM15.221 3.912H15.721V3.70489L15.5745 3.55845L15.221 3.912ZM15.221 15.288L15.5745 15.6416L15.721 15.4951V15.288H15.221ZM12.509 18V18.5H12.7161L12.8625 18.3536L12.509 18ZM4.20497 18L3.85142 18.3536L3.99786 18.5H4.20497V18ZM11.069 15.6V16.1H11.2735L11.4194 15.9567L11.069 15.6ZM12.437 14.256L12.7874 14.6127L12.937 14.4657V14.256H12.437ZM12.437 4.944H12.937V4.7343L12.7874 4.58733L12.437 4.944ZM11.069 3.6L11.4194 3.24333L11.2735 3.1H11.069V3.6ZM5.64497 3.6V3.1H5.44045L5.29456 3.24333L5.64497 3.6ZM4.27697 4.944L3.92656 4.58733L3.77697 4.7343V4.944H4.27697ZM4.27697 14.256H3.77697V14.4657L3.92656 14.6127L4.27697 14.256ZM5.64497 15.6L5.29456 15.9567L5.44045 16.1H5.64497V15.6ZM1.99297 15.288V3.912H0.992971V15.288H1.99297ZM1.84652 4.26555L4.55852 1.55355L3.85142 0.846446L1.13942 3.55845L1.84652 4.26555ZM4.20497 1.7H12.509V0.699999H4.20497V1.7ZM12.1554 1.55355L14.8674 4.26555L15.5745 3.55845L12.8625 0.846446L12.1554 1.55355ZM14.721 3.912V15.288H15.721V3.912H14.721ZM14.8674 14.9344L12.1554 17.6464L12.8625 18.3536L15.5745 15.6416L14.8674 14.9344ZM12.509 17.5H4.20497V18.5H12.509V17.5ZM4.55852 17.6464L1.84652 14.9344L1.13942 15.6416L3.85142 18.3536L4.55852 17.6464ZM11.4194 15.9567L12.7874 14.6127L12.0866 13.8993L10.7186 15.2433L11.4194 15.9567ZM12.937 14.256V4.944H11.937V14.256H12.937ZM12.7874 4.58733L11.4194 3.24333L10.7186 3.95667L12.0866 5.30067L12.7874 4.58733ZM11.069 3.1H5.64497V4.1H11.069V3.1ZM5.29456 3.24333L3.92656 4.58733L4.62738 5.30067L5.99538 3.95667L5.29456 3.24333ZM3.77697 4.944V14.256H4.77697V4.944H3.77697ZM3.92656 14.6127L5.29456 15.9567L5.99538 15.2433L4.62738 13.8993L3.92656 14.6127ZM5.64497 16.1H11.069V15.1H5.64497V16.1ZM19.3102 1.2V0.699999H18.8102V1.2H19.3102ZM30.7822 1.2H31.2822V0.699999H30.7822V1.2ZM30.7822 3.576V4.076H31.2822V3.576H30.7822ZM22.0942 3.576V3.076H21.5942V3.576H22.0942ZM22.0942 8.712H21.5942V9.212H22.0942V8.712ZM29.6302 8.712H30.1302V8.212H29.6302V8.712ZM29.6302 11.088V11.588H30.1302V11.088H29.6302ZM22.0942 11.088V10.588H21.5942V11.088H22.0942ZM22.0942 18V18.5H22.5942V18H22.0942ZM19.3102 18H18.8102V18.5H19.3102V18ZM19.3102 1.7H30.7822V0.699999H19.3102V1.7ZM30.2822 1.2V3.576H31.2822V1.2H30.2822ZM30.7822 3.076H22.0942V4.076H30.7822V3.076ZM21.5942 3.576V8.712H22.5942V3.576H21.5942ZM22.0942 9.212H29.6302V8.212H22.0942V9.212ZM29.1302 8.712V11.088H30.1302V8.712H29.1302ZM29.6302 10.588H22.0942V11.588H29.6302V10.588ZM21.5942 11.088V18H22.5942V11.088H21.5942ZM22.0942 17.5H19.3102V18.5H22.0942V17.5ZM19.8102 18V1.2H18.8102V18H19.8102ZM33.9108 1.2V0.699999H33.4108V1.2H33.9108ZM45.3828 1.2H45.8828V0.699999H45.3828V1.2ZM45.3828 3.576V4.076H45.8828V3.576H45.3828ZM36.6948 3.576V3.076H36.1948V3.576H36.6948ZM36.6948 8.712H36.1948V9.212H36.6948V8.712ZM44.2308 8.712H44.7308V8.212H44.2308V8.712ZM44.2308 11.088V11.588H44.7308V11.088H44.2308ZM36.6948 11.088V10.588H36.1948V11.088H36.6948ZM36.6948 18V18.5H37.1948V18H36.6948ZM33.9108 18H33.4108V18.5H33.9108V18ZM33.9108 1.7H45.3828V0.699999H33.9108V1.7ZM44.8828 1.2V3.576H45.8828V1.2H44.8828ZM45.3828 3.076H36.6948V4.076H45.3828V3.076ZM36.1948 3.576V8.712H37.1948V3.576H36.1948ZM36.6948 9.212H44.2308V8.212H36.6948V9.212ZM43.7308 8.712V11.088H44.7308V8.712H43.7308ZM44.2308 10.588H36.6948V11.588H44.2308V10.588ZM36.1948 11.088V18H37.1948V11.088H36.1948ZM36.6948 17.5H33.9108V18.5H36.6948V17.5ZM34.4108 18V1.2H33.4108V18H34.4108ZM47.5598 10.68V10.18H47.0598V10.68H47.5598ZM55.5278 10.68H56.0278V10.18H55.5278V10.68ZM55.5278 13.032V13.532H56.0278V13.032H55.5278ZM47.5598 13.032H47.0598V13.532H47.5598V13.032ZM47.5598 11.18H55.5278V10.18H47.5598V11.18ZM55.0278 10.68V13.032H56.0278V10.68H55.0278ZM55.5278 12.532H47.5598V13.532H55.5278V12.532ZM48.0598 13.032V10.68H47.0598V13.032H48.0598ZM58.2848 1.2V0.699999H57.6715L57.7951 1.30075L58.2848 1.2ZM61.0928 1.2L61.5851 1.1122L61.5116 0.699999H61.0928V1.2ZM63.3488 13.848L62.8566 13.9358L62.9301 14.348H63.3488V13.848ZM63.4208 13.848V14.348H63.7991L63.902 13.984L63.4208 13.848ZM66.9968 1.2V0.699999H66.6186L66.5157 1.06397L66.9968 1.2ZM69.2288 1.2L69.7112 1.06821L69.6106 0.699999H69.2288V1.2ZM72.6848 13.848L72.2025 13.9798L72.3031 14.348H72.6848V13.848ZM72.7808 13.848V14.348H73.2003L73.2732 13.9349L72.7808 13.848ZM75.0128 1.2V0.699999H74.5934L74.5205 1.11311L75.0128 1.2ZM77.8208 1.2L78.3106 1.30075L78.4342 0.699999H77.8208V1.2ZM74.3648 18V18.5H74.7725L74.8546 18.1007L74.3648 18ZM71.6768 18L71.1954 18.1348L71.2976 18.5H71.6768V18ZM68.1488 5.4L68.6303 5.26518L68.5281 4.9H68.1488V5.4ZM68.0768 5.4V4.9H67.7011L67.5966 5.26095L68.0768 5.4ZM64.4288 18V18.5H64.8046L64.9091 18.1391L64.4288 18ZM61.7408 18L61.2511 18.1007L61.3332 18.5H61.7408V18ZM58.2848 1.7H61.0928V0.699999H58.2848V1.7ZM60.6006 1.2878L62.8566 13.9358L63.8411 13.7602L61.5851 1.1122L60.6006 1.2878ZM63.3488 14.348H63.4208V13.348H63.3488V14.348ZM63.902 13.984L67.478 1.33603L66.5157 1.06397L62.9397 13.712L63.902 13.984ZM66.9968 1.7H69.2288V0.699999H66.9968V1.7ZM68.7465 1.33179L72.2025 13.9798L73.1672 13.7162L69.7112 1.06821L68.7465 1.33179ZM72.6848 14.348H72.7808V13.348H72.6848V14.348ZM73.2732 13.9349L75.5052 1.28689L74.5205 1.11311L72.2885 13.7611L73.2732 13.9349ZM75.0128 1.7H77.8208V0.699999H75.0128V1.7ZM77.3311 1.09925L73.8751 17.8993L74.8546 18.1007L78.3106 1.30075L77.3311 1.09925ZM74.3648 17.5H71.6768V18.5H74.3648V17.5ZM72.1583 17.8652L68.6303 5.26518L67.6674 5.53481L71.1954 18.1348L72.1583 17.8652ZM68.1488 4.9H68.0768V5.9H68.1488V4.9ZM67.5966 5.26095L63.9486 17.8609L64.9091 18.1391L68.5571 5.53905L67.5966 5.26095ZM64.4288 17.5H61.7408V18.5H64.4288V17.5ZM62.2306 17.8993L58.7746 1.09925L57.7951 1.30075L61.2511 18.1007L62.2306 17.8993ZM81.1814 1.2V0.699999H80.6814V1.2H81.1814ZM83.9654 1.2H84.4654V0.699999H83.9654V1.2ZM83.9654 8.424H83.4654V8.924H83.9654V8.424ZM91.5974 8.424V8.924H92.0974V8.424H91.5974ZM91.5974 1.2V0.699999H91.0974V1.2H91.5974ZM94.3814 1.2H94.8814V0.699999H94.3814V1.2ZM94.3814 18V18.5H94.8814V18H94.3814ZM91.5974 18H91.0974V18.5H91.5974V18ZM91.5974 10.824H92.0974V10.324H91.5974V10.824ZM83.9654 10.824V10.324H83.4654V10.824H83.9654ZM83.9654 18V18.5H84.4654V18H83.9654ZM81.1814 18H80.6814V18.5H81.1814V18ZM81.1814 1.7H83.9654V0.699999H81.1814V1.7ZM83.4654 1.2V8.424H84.4654V1.2H83.4654ZM83.9654 8.924H91.5974V7.924H83.9654V8.924ZM92.0974 8.424V1.2H91.0974V8.424H92.0974ZM91.5974 1.7H94.3814V0.699999H91.5974V1.7ZM93.8814 1.2V18H94.8814V1.2H93.8814ZM94.3814 17.5H91.5974V18.5H94.3814V17.5ZM92.0974 18V10.824H91.0974V18H92.0974ZM91.5974 10.324H83.9654V11.324H91.5974V10.324ZM83.4654 10.824V18H84.4654V10.824H83.4654ZM83.9654 17.5H81.1814V18.5H83.9654V17.5ZM81.6814 18V1.2H80.6814V18H81.6814ZM98.8317 1.2V0.699999H98.3317V1.2H98.8317ZM101.616 1.2H102.116V0.699999H101.616V1.2ZM101.616 18V18.5H102.116V18H101.616ZM98.8317 18H98.3317V18.5H98.8317V18ZM98.8317 1.7H101.616V0.699999H98.8317V1.7ZM101.116 1.2V18H102.116V1.2H101.116ZM101.616 17.5H98.8317V18.5H101.616V17.5ZM99.3317 18V1.2H98.3317V18H99.3317ZM109.887 3.576H110.387V3.076H109.887V3.576ZM104.847 3.576H104.347V4.076H104.847V3.576ZM104.847 1.2V0.699999H104.347V1.2H104.847ZM117.711 1.2H118.211V0.699999H117.711V1.2ZM117.711 3.576V4.076H118.211V3.576H117.711ZM112.671 3.576V3.076H112.171V3.576H112.671ZM112.671 18V18.5H113.171V18H112.671ZM109.887 18H109.387V18.5H109.887V18ZM109.887 3.076H104.847V4.076H109.887V3.076ZM105.347 3.576V1.2H104.347V3.576H105.347ZM104.847 1.7H117.711V0.699999H104.847V1.7ZM117.211 1.2V3.576H118.211V1.2H117.211ZM117.711 3.076H112.671V4.076H117.711V3.076ZM112.171 3.576V18H113.171V3.576H112.171ZM112.671 17.5H109.887V18.5H112.671V17.5ZM110.387 18V3.576H109.387V18H110.387ZM120.835 1.2V0.699999H120.335V1.2H120.835ZM132.547 1.2H133.047V0.699999H132.547V1.2ZM132.547 3.576V4.076H133.047V3.576H132.547ZM123.619 3.576V3.076H123.119V3.576H123.619ZM123.619 8.376H123.119V8.876H123.619V8.376ZM131.851 8.376H132.351V7.876H131.851V8.376ZM131.851 10.728V11.228H132.351V10.728H131.851ZM123.619 10.728V10.228H123.119V10.728H123.619ZM123.619 15.624H123.119V16.124H123.619V15.624ZM132.547 15.624H133.047V15.124H132.547V15.624ZM132.547 18V18.5H133.047V18H132.547ZM120.835 18H120.335V18.5H120.835V18ZM120.835 1.7H132.547V0.699999H120.835V1.7ZM132.047 1.2V3.576H133.047V1.2H132.047ZM132.547 3.076H123.619V4.076H132.547V3.076ZM123.119 3.576V8.376H124.119V3.576H123.119ZM123.619 8.876H131.851V7.876H123.619V8.876ZM131.351 8.376V10.728H132.351V8.376H131.351ZM131.851 10.228H123.619V11.228H131.851V10.228ZM123.119 10.728V15.624H124.119V10.728H123.119ZM123.619 16.124H132.547V15.124H123.619V16.124ZM132.047 15.624V18H133.047V15.624H132.047ZM132.547 17.5H120.835V18.5H132.547V17.5ZM121.335 18V1.2H120.335V18H121.335ZM150.668 1.2V0.699999H150.168V1.2H150.668ZM160.844 1.2L161.198 0.846446L161.051 0.699999H160.844V1.2ZM163.172 3.528H163.672V3.32089L163.526 3.17445L163.172 3.528ZM163.172 8.232L163.526 8.58555L163.672 8.43911V8.232H163.172ZM162.14 9.264L161.786 8.91045L161.433 9.264L161.786 9.61755L162.14 9.264ZM163.916 11.04H164.416V10.8329L164.27 10.6864L163.916 11.04ZM163.916 15.48L164.27 15.8336L164.416 15.6871V15.48H163.916ZM161.396 18V18.5H161.603L161.75 18.3536L161.396 18ZM150.668 18H150.168V18.5H150.668V18ZM159.452 8.424V8.924H159.659L159.806 8.77755L159.452 8.424ZM160.436 7.44L160.79 7.79355L160.936 7.64711V7.44H160.436ZM160.436 4.512H160.936V4.30489L160.79 4.15845L160.436 4.512ZM159.476 3.552L159.83 3.19845L159.683 3.052H159.476V3.552ZM153.38 3.552V3.052H152.88V3.552H153.38ZM153.38 8.424H152.88V8.924H153.38V8.424ZM160.028 15.648V16.148H160.235L160.382 16.0016L160.028 15.648ZM161.18 14.496L161.534 14.8496L161.68 14.7031V14.496H161.18ZM161.18 11.808H161.68V11.5978L161.53 11.4507L161.18 11.808ZM160.028 10.68L160.378 10.3227L160.232 10.18H160.028V10.68ZM153.38 10.68V10.18H152.88V10.68H153.38ZM153.38 15.648H152.88V16.148H153.38V15.648ZM150.668 1.7H160.844V0.699999H150.668V1.7ZM160.49 1.55355L162.818 3.88155L163.526 3.17445L161.198 0.846446L160.49 1.55355ZM162.672 3.528V8.232H163.672V3.528H162.672ZM162.818 7.87845L161.786 8.91045L162.494 9.61755L163.526 8.58555L162.818 7.87845ZM161.786 9.61755L163.562 11.3936L164.27 10.6864L162.494 8.91045L161.786 9.61755ZM163.416 11.04V15.48H164.416V11.04H163.416ZM163.562 15.1264L161.042 17.6464L161.75 18.3536L164.27 15.8336L163.562 15.1264ZM161.396 17.5H150.668V18.5H161.396V17.5ZM151.168 18V1.2H150.168V18H151.168ZM159.806 8.77755L160.79 7.79355L160.082 7.08645L159.098 8.07045L159.806 8.77755ZM160.936 7.44V4.512H159.936V7.44H160.936ZM160.79 4.15845L159.83 3.19845L159.122 3.90555L160.082 4.86555L160.79 4.15845ZM159.476 3.052H153.38V4.052H159.476V3.052ZM152.88 3.552V8.424H153.88V3.552H152.88ZM153.38 8.924H159.452V7.924H153.38V8.924ZM160.382 16.0016L161.534 14.8496L160.826 14.1424L159.674 15.2944L160.382 16.0016ZM161.68 14.496V11.808H160.68V14.496H161.68ZM161.53 11.4507L160.378 10.3227L159.678 11.0373L160.83 12.1653L161.53 11.4507ZM160.028 10.18H153.38V11.18H160.028V10.18ZM152.88 10.68V15.648H153.88V10.68H152.88ZM153.38 16.148H160.028V15.148H153.38V16.148ZM167.279 15.288H166.779V15.4951L166.925 15.6416L167.279 15.288ZM167.279 3.912L166.925 3.55845L166.779 3.70489V3.912H167.279ZM169.991 1.2V0.699999H169.783L169.637 0.846446L169.991 1.2ZM178.295 1.2L178.648 0.846446L178.502 0.699999H178.295V1.2ZM181.007 3.912H181.507V3.70489L181.36 3.55845L181.007 3.912ZM181.007 15.288L181.36 15.6416L181.507 15.4951V15.288H181.007ZM178.295 18V18.5H178.502L178.648 18.3536L178.295 18ZM169.991 18L169.637 18.3536L169.783 18.5H169.991V18ZM176.855 15.6V16.1H177.059L177.205 15.9567L176.855 15.6ZM178.223 14.256L178.573 14.6127L178.723 14.4657V14.256H178.223ZM178.223 4.944H178.723V4.7343L178.573 4.58733L178.223 4.944ZM176.855 3.6L177.205 3.24333L177.059 3.1H176.855V3.6ZM171.431 3.6V3.1H171.226L171.08 3.24333L171.431 3.6ZM170.063 4.944L169.712 4.58733L169.563 4.7343V4.944H170.063ZM170.063 14.256H169.563V14.4657L169.712 14.6127L170.063 14.256ZM171.431 15.6L171.08 15.9567L171.226 16.1H171.431V15.6ZM167.779 15.288V3.912H166.779V15.288H167.779ZM167.632 4.26555L170.344 1.55355L169.637 0.846446L166.925 3.55845L167.632 4.26555ZM169.991 1.7H178.295V0.699999H169.991V1.7ZM177.941 1.55355L180.653 4.26555L181.36 3.55845L178.648 0.846446L177.941 1.55355ZM180.507 3.912V15.288H181.507V3.912H180.507ZM180.653 14.9344L177.941 17.6464L178.648 18.3536L181.36 15.6416L180.653 14.9344ZM178.295 17.5H169.991V18.5H178.295V17.5ZM170.344 17.6464L167.632 14.9344L166.925 15.6416L169.637 18.3536L170.344 17.6464ZM177.205 15.9567L178.573 14.6127L177.872 13.8993L176.504 15.2433L177.205 15.9567ZM178.723 14.256V4.944H177.723V14.256H178.723ZM178.573 4.58733L177.205 3.24333L176.504 3.95667L177.872 5.30067L178.573 4.58733ZM176.855 3.1H171.431V4.1H176.855V3.1ZM171.08 3.24333L169.712 4.58733L170.413 5.30067L171.781 3.95667L171.08 3.24333ZM169.563 4.944V14.256H170.563V4.944H169.563ZM169.712 14.6127L171.08 15.9567L171.781 15.2433L170.413 13.8993L169.712 14.6127ZM171.431 16.1H176.855V15.1H171.431V16.1ZM188.761 9.336L189.176 9.6152L189.366 9.33307L189.173 9.05279L188.761 9.336ZM183.169 1.2V0.699999H182.219L182.757 1.48321L183.169 1.2ZM186.289 1.2L186.703 0.918798L186.554 0.699999H186.289V1.2ZM190.321 7.128L189.908 7.4092L190.321 8.01704L190.735 7.4092L190.321 7.128ZM194.353 1.2V0.699999H194.089L193.94 0.918798L194.353 1.2ZM197.473 1.2L197.887 1.48013L198.415 0.699999H197.473V1.2ZM191.905 9.432L191.491 9.15187L191.301 9.43231L191.491 9.71255L191.905 9.432ZM197.713 18V18.5H198.656L198.127 17.7194L197.713 18ZM194.593 18L194.179 18.2795L194.327 18.5H194.593V18ZM190.321 11.664L190.736 11.3845L190.321 10.7696L189.907 11.3845L190.321 11.664ZM186.049 18V18.5H186.315L186.464 18.2795L186.049 18ZM182.929 18L182.514 17.7208L181.99 18.5H182.929V18ZM189.173 9.05279L183.581 0.916786L182.757 1.48321L188.349 9.61921L189.173 9.05279ZM183.169 1.7H186.289V0.699999H183.169V1.7ZM185.876 1.4812L189.908 7.4092L190.735 6.8468L186.703 0.918798L185.876 1.4812ZM190.735 7.4092L194.767 1.4812L193.94 0.918798L189.908 6.8468L190.735 7.4092ZM194.353 1.7H197.473V0.699999H194.353V1.7ZM197.059 0.919868L191.491 9.15187L192.319 9.71213L197.887 1.48013L197.059 0.919868ZM191.491 9.71255L197.299 18.2806L198.127 17.7194L192.319 9.15145L191.491 9.71255ZM197.713 17.5H194.593V18.5H197.713V17.5ZM195.008 17.7205L190.736 11.3845L189.907 11.9435L194.179 18.2795L195.008 17.7205ZM189.907 11.3845L185.635 17.7205L186.464 18.2795L190.736 11.9435L189.907 11.3845ZM186.049 17.5H182.929V18.5H186.049V17.5ZM183.344 18.2792L189.176 9.6152L188.346 9.0568L182.514 17.7208L183.344 18.2792Z" fill="#F800FF"/>
</svg>
