<svg width="136" height="37" viewBox="0 0 136 37" fill="none" xmlns="http://www.w3.org/2000/svg">
<path fill-rule="evenodd" clip-rule="evenodd" d="M1 9.78174V36L65.1063 36L72.2292 36L122.246 36L135 28.5847V1L72.2292 1H13.998H1V9.78174Z" fill="#02D7F2" fill-opacity="0.06"/>
<path d="M1 36H0V37H1L1 36ZM65.1063 36V37V36ZM72.2292 36V35V36ZM122.246 36V37H122.515L122.748 36.8645L122.246 36ZM135 28.5847L135.503 29.4493L136 29.1601V28.5847H135ZM135 1H136V3.8743e-06L135 3.8147e-06V1ZM72.2292 1V0V1ZM1 1V0H0V1H1ZM2 36V9.78174H0V36H2ZM65.1063 35L1 35L1 37L65.1063 37V35ZM72.2292 35L65.1063 35V37L72.2292 37V35ZM122.246 35L72.2292 35V37L122.246 37V35ZM134.497 27.7202L121.743 35.1355L122.748 36.8645L135.503 29.4493L134.497 27.7202ZM134 1V28.5847H136V1H134ZM72.2292 2L135 2V3.8147e-06L72.2292 0V2ZM13.998 2H72.2292V0H13.998V2ZM1 2H13.998V0H1V2ZM2 9.78174V1H0V9.78174H2Z" fill="#02D7F2"/>
</svg>
