<svg width="64" height="54" viewBox="0 0 64 54" fill="none" xmlns="http://www.w3.org/2000/svg">
<g filter="url(#filter0_d)">
<path d="M9 16.6271L17.3942 9H55V45H9V16.6271Z" fill="#02D7F2" fill-opacity="0.06" shape-rendering="crispEdges"/>
<path d="M17.3942 9V8.5H17.2009L17.0579 8.62994L17.3942 9ZM9 16.6271L8.66376 16.2571L8.5 16.4059V16.6271H9ZM9 45H8.5V45.5H9V45ZM55 45V45.5H55.5V45H55ZM55 9H55.5V8.5H55V9ZM17.0579 8.62994L8.66376 16.2571L9.33624 16.9972L17.7304 9.37006L17.0579 8.62994ZM8.5 16.6271V45H9.5V16.6271H8.5ZM9 45.5H55V44.5H9V45.5ZM55.5 45V9H54.5V45H55.5ZM55 8.5H17.3942V9.5H55V8.5Z" fill="#02D7F2"/>
</g>
<defs>
<filter id="filter0_d" x="0.5" y="0.5" width="63" height="53" filterUnits="userSpaceOnUse" color-interpolation-filters="sRGB">
<feFlood flood-opacity="0" result="BackgroundImageFix"/>
<feColorMatrix in="SourceAlpha" type="matrix" values="0 0 0 0 0 0 0 0 0 0 0 0 0 0 0 0 0 0 127 0" result="hardAlpha"/>
<feOffset/>
<feGaussianBlur stdDeviation="4"/>
<feComposite in2="hardAlpha" operator="out"/>
<feColorMatrix type="matrix" values="0 0 0 0 0 0 0 0 0 0.709804 0 0 0 0 0.752941 0 0 0 1 0"/>
<feBlend mode="normal" in2="BackgroundImageFix" result="effect1_dropShadow"/>
<feBlend mode="normal" in="SourceGraphic" in2="effect1_dropShadow" result="shape"/>
</filter>
</defs>
</svg>
