<svg width="255" height="45" viewBox="0 0 255 45" fill="none" xmlns="http://www.w3.org/2000/svg">
<path fill-rule="evenodd" clip-rule="evenodd" d="M19.6241 1L1 11.7283V43.7579L95 43.7579L103.06 43.7579L234.872 43.7579L253.146 34.6991V1L103.06 1H19.6241Z" fill="#02D7F2" fill-opacity="0.06"/>
<path d="M1 11.7283L0.50085 10.8617L0 11.1503V11.7283H1ZM19.6241 1V0H19.3566L19.1249 0.133484L19.6241 1ZM1 43.7579H0V44.7579H1L1 43.7579ZM95 43.7579V44.7579V43.7579ZM103.06 43.7579V42.7579V43.7579ZM234.872 43.7579V44.7579H235.106L235.316 44.6539L234.872 43.7579ZM253.146 34.6991L253.591 35.595L254.146 35.3195V34.6991H253.146ZM253.146 1H254.146V3.8147e-06H253.146V1ZM103.06 1V0V1ZM1.49915 12.5948L20.1232 1.86652L19.1249 0.133484L0.50085 10.8617L1.49915 12.5948ZM2 43.7579V11.7283H0V43.7579H2ZM95 42.7579L1 42.7579L1 44.7579L95 44.7579V42.7579ZM103.06 42.7579L95 42.7579V44.7579L103.06 44.7579V42.7579ZM234.872 42.7579L103.06 42.7579V44.7579L234.872 44.7579V42.7579ZM252.702 33.8031L234.427 42.862L235.316 44.6539L253.591 35.595L252.702 33.8031ZM252.146 1V34.6991H254.146V1H252.146ZM103.06 2L253.146 2V3.8147e-06L103.06 0V2ZM19.6241 2H103.06V0H19.6241V2Z" fill="#02D7F2"/>
</svg>
