<svg width="1735" height="1007" viewBox="0 0 1735 1007" fill="none" xmlns="http://www.w3.org/2000/svg">
<g filter="url(#filter0_i)">
<path fill-rule="evenodd" clip-rule="evenodd" d="M1735 18.6667C1735 8.35735 1726.64 0 1716.33 0H143.567C133.258 0 124.9 8.35734 124.9 18.6667L124.9 382.518C124.9 392.827 116.543 401.184 106.234 401.184H18.6667C8.35735 401.184 0 409.542 0 419.851V454.834C0 465.144 8.35736 473.501 18.6667 473.501H106.234C116.543 473.501 124.9 481.858 124.9 492.168L124.9 987.737C124.9 998.047 133.257 1006.4 143.567 1006.4H1716.33C1726.64 1006.4 1735 998.047 1735 987.737V18.6667Z" fill="#16162B"/>
</g>
<defs>
<filter id="filter0_i" x="0" y="0" width="1735" height="1010.4" filterUnits="userSpaceOnUse" color-interpolation-filters="sRGB">
<feFlood flood-opacity="0" result="BackgroundImageFix"/>
<feBlend mode="normal" in="SourceGraphic" in2="BackgroundImageFix" result="shape"/>
<feColorMatrix in="SourceAlpha" type="matrix" values="0 0 0 0 0 0 0 0 0 0 0 0 0 0 0 0 0 0 127 0" result="hardAlpha"/>
<feOffset dy="4"/>
<feGaussianBlur stdDeviation="2"/>
<feComposite in2="hardAlpha" operator="arithmetic" k2="-1" k3="1"/>
<feColorMatrix type="matrix" values="0 0 0 0 0 0 0 0 0 0 0 0 0 0 0 0 0 0 0.25 0"/>
<feBlend mode="normal" in2="shape" result="effect1_innerShadow"/>
</filter>
</defs>
</svg>
