<svg width="8" height="8" viewBox="0 0 8 8" fill="none" xmlns="http://www.w3.org/2000/svg">
<path d="M0.125 3.90851C0.143062 4.34395 0.256394 4.77191 0.458497 5.16792C0.6606 5.56393 0.947506 5.92022 1.30283 6.2164C1.65815 6.51258 2.0749 6.74284 2.52924 6.89402C2.98359 7.0452 3.4666 7.11434 3.95068 7.09746C4.89086 7.06123 5.77731 6.69324 6.41796 6.07322C7.05861 5.45321 7.40187 4.63111 7.37336 3.78505C7.36289 3.34892 7.25583 2.91904 7.05845 2.52056C6.86107 2.12209 6.57733 1.76302 6.22382 1.46437C5.87031 1.16572 5.45412 0.933483 4.99963 0.781239C4.54514 0.628995 4.06146 0.559805 3.57688 0.577719C2.6429 0.64463 1.7706 1.02362 1.13173 1.64008C0.492862 2.25654 0.133718 3.06579 0.125 3.90851ZM2.42917 3.79293C2.45546 2.99175 2.98405 2.62663 3.87184 2.6529C4.04186 2.64481 4.21189 2.66859 4.37117 2.7227C4.53045 2.77682 4.6755 2.8601 4.79713 2.96728C4.91875 3.07445 5.0143 3.20319 5.07772 3.34531C5.14114 3.48744 5.17105 3.63986 5.16556 3.79293C5.18356 3.96322 5.16159 4.13502 5.10109 4.29719C5.04058 4.45936 4.94288 4.60829 4.81431 4.73434C4.68574 4.86038 4.52917 4.96073 4.35474 5.02888C4.18031 5.09704 3.9919 5.13148 3.80173 5.12998C2.96943 5.13786 2.44378 4.63614 2.42917 3.7798V3.79293Z" fill="#F337F8"/>
</svg>
