<svg width="36" height="36" viewBox="0 0 36 36" fill="none" xmlns="http://www.w3.org/2000/svg">
<path d="M18.2388 11.2546C16.8454 11.2546 15.4834 11.6683 14.3249 12.4434C13.1664 13.2185 12.2635 14.3201 11.7303 15.609C11.1971 16.898 11.0576 18.3163 11.3294 19.6846C11.6012 21.0529 12.2722 22.3098 13.2574 23.2963C14.2426 24.2828 15.4979 24.9546 16.8644 25.2267C18.231 25.4989 19.6474 25.3592 20.9347 24.8253C22.2219 24.2915 23.3222 23.3873 24.0963 22.2273C24.8703 21.0673 25.2835 19.7036 25.2835 18.3084C25.2835 16.4376 24.5413 14.6435 23.2202 13.3206C21.899 11.9978 20.1071 11.2546 18.2388 11.2546ZM18.2388 21.8354C17.5421 21.8354 16.8611 21.6285 16.2818 21.241C15.7026 20.8534 15.2511 20.3026 14.9845 19.6581C14.7179 19.0137 14.6482 18.3045 14.7841 17.6204C14.92 16.9362 15.2555 16.3078 15.7481 15.8145C16.2407 15.3213 16.8683 14.9854 17.5516 14.8493C18.2349 14.7132 18.9431 14.783 19.5867 15.05C20.2303 15.3169 20.7805 15.769 21.1675 16.349C21.5546 16.929 21.7611 17.6109 21.7611 18.3084C21.7611 19.2438 21.39 20.1409 20.7295 20.8023C20.0689 21.4638 19.173 21.8354 18.2388 21.8354ZM35.3399 17.0564L31.2011 13.018V7.09281C31.2011 6.62511 31.0155 6.17656 30.6853 5.84585C30.355 5.51514 29.907 5.32934 29.4399 5.32934H23.6104L19.4892 1.1852C19.3255 1.01992 19.1307 0.888725 18.9161 0.799197C18.7015 0.709668 18.4713 0.663574 18.2388 0.663574C18.0063 0.663574 17.7761 0.709668 17.5615 0.799197C17.3468 0.888725 17.1521 1.01992 16.9883 1.1852L12.9552 5.32934H7.03763C6.57053 5.32934 6.12257 5.51514 5.79228 5.84585C5.46199 6.17656 5.27644 6.62511 5.27644 7.09281V13.018L1.13765 17.0564C0.972582 17.2203 0.84156 17.4154 0.752147 17.6302C0.662734 17.8451 0.616699 18.0756 0.616699 18.3084C0.616699 18.5412 0.662734 18.7717 0.752147 18.9866C0.84156 19.2015 0.972582 19.3966 1.13765 19.5605L5.27644 23.687V29.5241C5.27644 29.9918 5.46199 30.4403 5.79228 30.771C6.12257 31.1017 6.57053 31.2875 7.03763 31.2875H12.9552L17.0764 35.4317C17.2401 35.5969 17.4349 35.7281 17.6495 35.8177C17.8641 35.9072 18.0943 35.9533 18.3268 35.9533C18.5593 35.9533 18.7895 35.9072 19.0041 35.8177C19.2188 35.7281 19.4135 35.5969 19.5773 35.4317L23.6984 31.2875H29.528C29.9951 31.2875 30.443 31.1017 30.7733 30.771C31.1036 30.4403 31.2892 29.9918 31.2892 29.5241V23.687L35.4279 19.5605C35.5874 19.3908 35.7117 19.1912 35.7936 18.9731C35.8755 18.755 35.9135 18.5229 35.9053 18.2901C35.8971 18.0572 35.843 17.8283 35.7459 17.6166C35.6488 17.4048 35.5108 17.2144 35.3399 17.0564ZM28.2071 21.7119C28.0407 21.8752 27.9083 22.07 27.8176 22.2849C27.7269 22.4998 27.6797 22.7307 27.6787 22.964V27.7606H22.8883C22.6553 27.7616 22.4248 27.8088 22.2101 27.8996C21.9955 27.9904 21.801 28.123 21.6379 28.2896L18.2388 31.6931L14.8397 28.2896C14.6766 28.123 14.4821 27.9904 14.2674 27.8996C14.0528 27.8088 13.8223 27.7616 13.5892 27.7606H8.79881V22.964C8.79784 22.7307 8.75065 22.4998 8.65995 22.2849C8.56926 22.07 8.43687 21.8752 8.27046 21.7119L4.87137 18.3084L8.27046 14.9049C8.43687 14.7416 8.56926 14.5469 8.65995 14.3319C8.75065 14.117 8.79784 13.8862 8.79881 13.6529V8.85627H13.5892C13.8223 8.8553 14.0528 8.80804 14.2674 8.71723C14.4821 8.62642 14.6766 8.49386 14.8397 8.32723L18.2388 4.92375L21.6379 8.32723C21.801 8.49386 21.9955 8.62642 22.2101 8.71723C22.4248 8.80804 22.6553 8.8553 22.8883 8.85627H27.6787V13.6529C27.6797 13.8862 27.7269 14.117 27.8176 14.3319C27.9083 14.5469 28.0407 14.7416 28.2071 14.9049L31.6062 18.3084L28.2071 21.7119Z" fill="white"/>
</svg>
