<svg width="33" height="33" viewBox="0 0 33 33" fill="none" xmlns="http://www.w3.org/2000/svg">
<path d="M22.8544 17.7136C24.4299 16.4809 25.5798 14.7905 26.1443 12.8776C26.7087 10.9646 26.6596 8.92428 26.0037 7.04039C25.3479 5.15651 24.1179 3.52276 22.4849 2.36644C20.852 1.21013 18.8972 0.588745 16.8926 0.588745C14.888 0.588745 12.9332 1.21013 11.3003 2.36644C9.66729 3.52276 8.43732 5.15651 7.78147 7.04039C7.12562 8.92428 7.0765 10.9646 7.64094 12.8776C8.20538 14.7905 9.35532 16.4809 10.9308 17.7136C8.2312 18.7893 5.87573 20.5733 4.11548 22.8755C2.35522 25.1778 1.25616 27.9119 0.935474 30.7865C0.912261 30.9963 0.930841 31.2087 0.990152 31.4114C1.04946 31.6142 1.14834 31.8033 1.28115 31.968C1.54936 32.3007 1.93948 32.5138 2.36567 32.5604C2.79186 32.607 3.21922 32.4834 3.55374 32.2166C3.88825 31.9499 4.10252 31.5619 4.1494 31.1381C4.50226 28.014 6.00011 25.1287 8.35677 23.0335C10.7134 20.9383 13.7637 19.7801 16.9247 19.7801C20.0858 19.7801 23.136 20.9383 25.4927 23.0335C27.8494 25.1287 29.3472 28.014 29.7001 31.1381C29.7438 31.5308 29.9322 31.8934 30.2289 32.1561C30.5257 32.4188 30.9098 32.5628 31.307 32.5604H31.4838C31.9051 32.5122 32.2901 32.3004 32.5549 31.9711C32.8198 31.6418 32.9431 31.2217 32.8979 30.8024C32.5757 27.9197 31.4708 25.1786 29.7014 22.8728C27.9321 20.567 25.5652 18.7836 22.8544 17.7136ZM16.8926 16.579C15.6213 16.579 14.3785 16.204 13.3215 15.5016C12.2644 14.7992 11.4406 13.8008 10.954 12.6327C10.4675 11.4646 10.3402 10.1793 10.5883 8.93926C10.8363 7.69922 11.4485 6.56018 12.3474 5.66616C13.2464 4.77214 14.3917 4.16331 15.6386 3.91665C16.8855 3.66999 18.1779 3.79658 19.3524 4.28042C20.527 4.76426 21.5309 5.58361 22.2372 6.63487C22.9435 7.68612 23.3204 8.92206 23.3204 10.1864C23.3204 11.8818 22.6432 13.5078 21.4378 14.7066C20.2323 15.9055 18.5974 16.579 16.8926 16.579Z" fill="#323868"/>
</svg>
