<svg width="11" height="8" viewBox="0 0 11 8" fill="none" xmlns="http://www.w3.org/2000/svg">
<path d="M-9.72748e-05 6.62978C0.106073 7.59681 0.636935 8.02528 1.30118 7.62656C4.10518 5.94839 6.86562 4.17798 9.62334 2.41352C10.0671 2.11597 10.3284 1.63394 10.0072 1.05372C9.95552 0.931458 9.87968 0.823246 9.78513 0.736881C9.69058 0.650515 9.57967 0.588151 9.46041 0.554282C9.34115 0.520414 9.2165 0.515888 9.09544 0.541025C8.97439 0.566162 8.85994 0.62034 8.76035 0.699651C5.98902 2.44725 3.22496 4.20476 0.468152 5.9722C0.253088 6.10907 0.136019 6.43042 -9.72748e-05 6.62978Z" fill="#02D7F2"/>
</svg>
