<svg width="6" height="27" viewBox="0 0 6 27" fill="none" xmlns="http://www.w3.org/2000/svg">
<path fill-rule="evenodd" clip-rule="evenodd" d="M0.677002 3.23351C0.677002 1.87943 1.7747 0.781738 3.12877 0.781738C4.48285 0.781738 5.58054 1.87943 5.58054 3.23351C5.58054 4.58759 4.48285 5.68528 3.12877 5.68528C1.7747 5.68528 0.677002 4.58759 0.677002 3.23351ZM3.12877 2.64841C2.80563 2.64841 2.54367 2.91037 2.54367 3.23351C2.54367 3.55665 2.80563 3.81861 3.12877 3.81861C3.45192 3.81861 3.71388 3.55665 3.71388 3.23351C3.71388 2.91037 3.45192 2.64841 3.12877 2.64841ZM0.677002 13.8625C0.677002 12.5084 1.7747 11.4107 3.12877 11.4107C4.48285 11.4107 5.58054 12.5084 5.58054 13.8625C5.58054 15.2166 4.48285 16.3142 3.12877 16.3142C1.7747 16.3142 0.677002 15.2166 0.677002 13.8625ZM3.12877 13.2774C2.80563 13.2774 2.54367 13.5393 2.54367 13.8625C2.54367 14.1856 2.80563 14.4476 3.12877 14.4476C3.45192 14.4476 3.71388 14.1856 3.71388 13.8625C3.71388 13.5393 3.45192 13.2774 3.12877 13.2774ZM3.12877 22.0397C1.7747 22.0397 0.677002 23.1374 0.677002 24.4914C0.677002 25.8455 1.7747 26.9432 3.12877 26.9432C4.48285 26.9432 5.58054 25.8455 5.58054 24.4914C5.58054 23.1374 4.48285 22.0397 3.12877 22.0397ZM2.54367 24.4914C2.54367 24.1683 2.80563 23.9063 3.12877 23.9063C3.45192 23.9063 3.71388 24.1683 3.71388 24.4914C3.71388 24.8146 3.45192 25.0765 3.12877 25.0765C2.80563 25.0765 2.54367 24.8146 2.54367 24.4914Z" fill="#C4C4C4"/>
</svg>
