<svg width="60" height="21" viewBox="0 0 60 21" fill="none" xmlns="http://www.w3.org/2000/svg">
<path fill-rule="evenodd" clip-rule="evenodd" d="M43.6108 0.818302C42.6506 0.426945 41.1403 -0.000120163 39.2589 -0.000120163C34.4572 -0.000120163 31.0772 2.64636 31.0492 6.43553C31.0186 9.23809 33.4611 10.8015 35.3025 11.7331C37.195 12.688 37.8309 13.2991 37.8234 14.153C37.8103 15.4589 36.3128 16.0573 34.9164 16.0573C32.972 16.0573 31.9389 15.7627 30.3417 15.0347L29.717 14.7243L29.0378 19.0891C30.1703 19.6322 32.2697 20.1037 34.4486 20.1284C39.5517 20.1284 42.8675 17.5142 42.9064 13.4679C42.9239 11.2453 41.6297 9.56034 38.827 8.16942C37.1297 7.26547 36.0881 6.66648 36.1 5.7513C36.1011 4.94065 36.98 4.07328 38.8822 4.07328C40.4709 4.04678 41.6208 4.42604 42.517 4.8223L42.9531 5.04548L43.6108 0.818302ZM21.1373 19.8394L24.1757 0.339756H29.0323L25.9943 19.8394H21.1373ZM52.0124 7.4757C52.0124 7.4757 50.4802 11.8051 50.0777 12.9259H54.1096C53.9177 11.9511 52.9858 7.29687 52.9858 7.29687L52.658 5.6151C52.5283 6.00139 52.3475 6.51342 52.21 6.90279L52.2098 6.90327L52.2095 6.90399C52.0871 7.25071 51.9991 7.49984 52.0124 7.4757ZM56.0695 0.359631H52.3162C51.152 0.359631 50.2806 0.704624 49.7706 1.97603L42.5581 19.8463H47.6592C47.6592 19.8463 48.4914 17.4423 48.6803 16.9147C48.9418 16.9147 50.1754 16.9169 51.4829 16.9193C52.9574 16.9219 54.5259 16.9248 54.9009 16.9248C55.0464 17.6053 55.4923 19.8463 55.4923 19.8463H60L56.0695 0.359631ZM17.0631 0.355911L12.3095 13.65L11.8003 10.9476C11.8002 10.9473 11.8001 10.9469 11.8 10.9466L10.0983 1.98825C9.80472 0.75255 8.95138 0.386248 7.89666 0.343052H0.0647222L0 0.747078C1.90547 1.2521 3.60935 1.98035 5.10258 2.88613L9.42141 19.8221L14.5614 19.8189L22.2097 0.355911H17.0631Z" fill="white"/>
</svg>
