<svg width="319" height="82" viewBox="0 0 319 82" fill="none" xmlns="http://www.w3.org/2000/svg">
<g filter="url(#filter0_d)">
<path fill-rule="evenodd" clip-rule="evenodd" d="M38.1971 9L9 22.5593V73H161H169H282.81L310 59.4407V9H169H161H38.1971Z" fill="#02D7F2" fill-opacity="0.06" shape-rendering="crispEdges"/>
<path d="M9 22.5593L8.5788 21.6524L8 21.9212V22.5593H9ZM38.1971 9V8H37.9762L37.7759 8.09303L38.1971 9ZM9 73H8V74H9V73ZM282.81 73V74H283.046L283.257 73.8949L282.81 73ZM310 59.4407L310.446 60.3356L311 60.0594V59.4407H310ZM310 9H311V8H310V9ZM9.4212 23.4663L38.6183 9.90697L37.7759 8.09303L8.5788 21.6524L9.4212 23.4663ZM10 73V22.5593H8V73H10ZM161 72H9V74H161V72ZM169 72H161V74H169V72ZM282.81 72H169V74H282.81V72ZM309.554 58.5458L282.364 72.1051L283.257 73.8949L310.446 60.3356L309.554 58.5458ZM309 9V59.4407H311V9H309ZM169 10H310V8H169V10ZM161 10H169V8H161V10ZM38.1971 10H161V8H38.1971V10Z" fill="#02D7F2"/>
</g>
<defs>
<filter id="filter0_d" x="0" y="0" width="319" height="82" filterUnits="userSpaceOnUse" color-interpolation-filters="sRGB">
<feFlood flood-opacity="0" result="BackgroundImageFix"/>
<feColorMatrix in="SourceAlpha" type="matrix" values="0 0 0 0 0 0 0 0 0 0 0 0 0 0 0 0 0 0 127 0" result="hardAlpha"/>
<feOffset/>
<feGaussianBlur stdDeviation="4"/>
<feComposite in2="hardAlpha" operator="out"/>
<feColorMatrix type="matrix" values="0 0 0 0 0.00784314 0 0 0 0 0.843137 0 0 0 0 0.94902 0 0 0 1 0"/>
<feBlend mode="normal" in2="BackgroundImageFix" result="effect1_dropShadow"/>
<feBlend mode="normal" in="SourceGraphic" in2="effect1_dropShadow" result="shape"/>
</filter>
</defs>
</svg>
