<svg width="124" height="37" viewBox="0 0 124 37" fill="none" xmlns="http://www.w3.org/2000/svg">
<path fill-rule="evenodd" clip-rule="evenodd" d="M12.834 1L1 9.78174V36L59.3654 36L65.8505 36L111.388 36H123V1L65.8505 1H12.834Z" fill="#F800FF" fill-opacity="0.06"/>
<path d="M1 9.78174L0.404081 8.97869L0 9.27855V9.78174H1ZM12.834 1V0H12.5035L12.2381 0.196956L12.834 1ZM1 36H0V37H1L1 36ZM59.3654 36V37V36ZM65.8505 36V35V36ZM111.388 36V37V36ZM123 36V37H124V36H123ZM123 1H124V3.8743e-06L123 3.8147e-06V1ZM65.8505 1V0V1ZM1.59592 10.5848L13.43 1.80304L12.2381 0.196956L0.404081 8.97869L1.59592 10.5848ZM2 36V9.78174H0V36H2ZM59.3654 35L1 35L1 37L59.3654 37V35ZM65.8505 35L59.3654 35V37L65.8505 37V35ZM111.388 35L65.8505 35V37L111.388 37V35ZM123 35H111.388V37H123V35ZM122 1V36H124V1H122ZM65.8505 2L123 2V3.8147e-06L65.8505 0V2ZM12.834 2H65.8505V0H12.834V2Z" fill="#F337F8"/>
</svg>
