<svg width="50" height="32" viewBox="0 0 50 32" fill="none" xmlns="http://www.w3.org/2000/svg">
<path d="M48.8698 25.1582C47.8776 22.4989 46.0763 20.7362 43.1721 20.2195C42.5158 20.1055 41.8441 20.2651 41.203 19.9916C34.9342 17.3069 28.6591 14.6324 22.3776 11.968C22.2452 11.9199 22.1263 11.841 22.0307 11.7379C21.9351 11.6349 21.8657 11.5106 21.828 11.3754C20.7442 8.19179 19.6528 5.0158 18.5537 1.84741C18.2713 1.02302 17.9775 0.844465 17.1074 0.893852C16.1868 0.944302 15.2824 1.15652 14.436 1.52069C12.4897 2.36788 11.1273 3.73553 10.7839 5.91237C10.7343 6.21249 10.5625 6.29227 10.3298 6.35685C9.01319 6.75233 7.72854 7.24634 6.48682 7.83468C4.37629 8.82942 2.44282 10.1601 0.762481 11.7743C0.542159 11.9797 0.36984 12.2307 0.257735 12.5097C0.14563 12.7887 0.0964723 13.0889 0.113719 13.3889C0.113719 18.981 0.113719 24.5719 0.113719 30.1616C0.113719 31.419 0.457183 31.761 1.71654 31.761H43.1493C44.8971 31.761 46.6449 31.761 48.3966 31.761C49.2896 31.761 49.7552 31.3355 49.7323 30.4997C49.7446 28.6839 49.4531 26.8787 48.8698 25.1582ZM2.33476 13.9929C2.32366 13.7821 2.36281 13.5718 2.44904 13.379C2.53526 13.1862 2.66611 13.0164 2.83087 12.8836C4.53625 11.4118 6.46926 10.2238 8.5552 9.36568C9.62768 8.93039 10.7218 8.54999 11.8333 8.22598C12.6462 7.97904 12.8523 7.70931 12.8942 6.89632C13.0049 4.73087 14.5238 3.61775 16.3976 3.23405C16.7792 3.15427 16.7143 3.4468 16.7792 3.61396C17.4928 5.66923 18.195 7.7321 18.9048 9.79498C19.2864 10.8625 19.6223 11.9376 20.023 13.0014C20.0625 13.108 20.0751 13.2226 20.0598 13.3351C20.0445 13.4477 20.0017 13.5549 19.9352 13.6472C19.4658 14.5514 18.9735 15.4365 18.5385 16.3521C18.4699 16.4835 18.4289 16.6274 18.4182 16.7751C18.4075 16.9228 18.4273 17.0711 18.4762 17.2109C18.5252 17.3507 18.6023 17.4791 18.7029 17.5882C18.8036 17.6972 18.9255 17.7847 19.0613 17.8451C19.3138 17.9591 19.5997 17.976 19.864 17.8925C20.1282 17.809 20.3521 17.6311 20.4924 17.393C20.5757 17.2629 20.6497 17.1271 20.7137 16.9865C21.0953 16.2267 21.5265 15.4669 21.9082 14.7071C22.0532 14.4222 22.1677 14.293 22.5111 14.4678C23.053 14.7413 23.6255 14.9617 24.1864 15.182C24.4269 15.277 24.4612 15.3682 24.3467 15.6037C23.927 16.4623 23.5262 17.3322 23.1255 18.2022C22.7439 19 22.9386 19.6421 23.5988 19.9346C24.2017 20.2081 24.7894 19.9042 25.1596 19.1102C25.5641 18.244 25.9725 17.3778 26.3579 16.5041C26.4647 16.2495 26.5754 16.2001 26.8349 16.3179C27.4379 16.599 28.0485 16.865 28.6743 17.1005C28.9834 17.2145 28.9834 17.3436 28.8537 17.6134C28.472 18.4416 28.1171 19.2925 27.7088 20.1169C27.6231 20.254 27.567 20.4074 27.544 20.5672C27.5211 20.7271 27.5319 20.8899 27.5757 21.0454C27.6195 21.2009 27.6954 21.3455 27.7984 21.4702C27.9015 21.5949 28.0296 21.6968 28.1744 21.7695C28.7774 22.0582 29.4185 21.7695 29.7658 21.0097C30.113 20.2499 30.529 19.4179 30.8496 18.6087C31.0099 18.2288 31.1663 18.149 31.5708 18.3238C34.4101 19.5623 37.2723 20.7552 40.1077 21.9937C40.7666 22.2906 41.4834 22.4385 42.2066 22.4267C43.0339 22.4215 43.8457 22.6491 44.5486 23.0833C45.2515 23.5176 45.8168 24.1407 46.1793 24.8809H45.5344C31.3711 24.8809 17.2079 24.8809 3.04458 24.8809C2.42635 24.8809 2.32713 24.7024 2.33094 24.1211C2.36147 20.7374 2.36275 17.3614 2.33476 13.9929ZM47.1372 29.5461C47.019 29.5385 46.9005 29.5385 46.7823 29.5461H24.9306C17.6264 29.5461 10.3221 29.5461 3.01786 29.5461C2.51412 29.5461 2.25461 29.4701 2.34238 28.9003C2.43015 28.3304 2.09814 27.5098 2.46068 27.1717C2.82322 26.8336 3.57885 27.073 4.17037 27.073C18.2624 27.073 32.3595 27.073 46.4617 27.073C46.954 27.073 47.225 27.1565 47.225 27.7074C47.2653 28.2111 47.3341 28.7121 47.4311 29.208C47.4769 29.4512 47.412 29.5803 47.1372 29.5461Z" fill="#323868"/>
</svg>
