<svg width="52" height="41" viewBox="0 0 52 41" fill="none" xmlns="http://www.w3.org/2000/svg">
<path d="M51.5285 16.1777C50.2688 13.6861 49.0189 11.1869 47.7789 8.68006C47.6747 8.46008 47.5248 8.26285 47.3384 8.10047C47.152 7.93809 46.933 7.81398 46.6949 7.73575L26.9223 1.08574C26.5569 0.95791 26.1563 0.95791 25.7909 1.08574L6.12476 7.71868C5.90838 7.78358 5.70777 7.88952 5.5348 8.03023C5.36182 8.17094 5.22004 8.34355 5.11779 8.53785C3.80277 11.1148 2.48182 13.6576 1.18457 16.2687C1.07449 16.4528 1.01021 16.6588 0.996785 16.8707C0.983363 17.0826 1.02117 17.2946 1.1072 17.4901C1.19323 17.6856 1.32519 17.8594 1.49275 17.9979C1.66031 18.1363 1.85893 18.2357 2.0731 18.2882C2.89054 18.5783 3.70801 18.857 4.54323 19.1073C4.85125 19.1983 4.91641 19.3406 4.91641 19.6193C4.91641 21.7355 4.91641 23.8516 4.91641 25.9621C4.91641 28.0726 4.91641 30.1603 4.91641 32.2594C4.85739 32.646 4.95635 33.0396 5.19263 33.3577C5.42891 33.6758 5.7842 33.8938 6.18405 33.966L25.6072 40.5307C26.1133 40.7126 26.6709 40.7126 27.177 40.5307L46.5113 34.0058C46.9396 33.9242 47.3184 33.687 47.569 33.3436C47.8195 33.0002 47.9223 32.5771 47.856 32.1627C47.856 27.9986 47.856 23.8346 47.856 19.6477C47.8352 19.5257 47.8652 19.4007 47.9394 19.2997C48.0136 19.1986 48.1261 19.1295 48.2528 19.1073C49.0228 18.8741 49.7633 18.5385 50.5393 18.3678C50.7728 18.3123 50.9897 18.2058 51.1733 18.0566C51.3569 17.9074 51.5022 17.7196 51.5979 17.5077C51.6936 17.2958 51.7372 17.0656 51.7251 16.8349C51.7131 16.6042 51.6458 16.3793 51.5285 16.1777ZM4.8927 16.1777C4.57875 16.0696 4.60242 15.9672 4.72089 15.7396C5.50279 14.2208 6.27881 12.7076 7.04886 11.1887C7.16141 10.9726 7.24431 10.8872 7.53456 10.984C13.0632 12.8802 18.6017 14.7479 24.15 16.5873L24.3278 16.6669C23.4985 18.3109 22.6692 19.9265 21.8576 21.5534C21.751 21.7696 21.6444 21.8151 21.4134 21.7412C15.9124 19.8942 10.4055 18.0473 4.8927 16.2004V16.1777ZM24.8372 37.1858C24.7069 37.237 24.5825 37.1403 24.4521 37.1004L8.31057 31.6223C8.09733 31.5483 7.90774 31.5085 7.90774 31.19C7.90774 27.5777 7.90774 23.9654 7.90774 20.2735L13.8906 22.2759L21.7333 24.904C21.9305 24.9971 22.1459 25.0489 22.3655 25.056C22.5851 25.0631 22.8039 25.0253 23.0071 24.9452C23.2104 24.8651 23.3936 24.7444 23.5447 24.5912C23.6958 24.438 23.8113 24.2557 23.8835 24.0564C24.1856 23.4876 24.4758 22.8675 24.8253 22.1621L24.8372 37.1858ZM26.8748 14.1753C26.6179 14.2934 26.3245 14.3157 26.0515 14.2379C21.0935 12.5313 16.1296 10.8702 11.1657 9.18635L10.9347 9.10671L18.5582 6.54683L25.9626 4.0609C26.188 3.96244 26.4436 3.94824 26.6794 4.02108L41.423 9.02138C41.5119 9.02138 41.6303 9.02138 41.6955 9.19204L41.2572 9.35132L26.8748 14.1753ZM44.5032 31.7304L28.2491 37.2199L27.8937 37.3166V22.2019L28.8118 24.0337C29.3331 25.0747 29.9965 25.3307 31.0983 24.9495L44.1716 20.5693L44.8172 20.3588C44.8172 20.5238 44.8172 20.6432 44.8172 20.7684C44.8172 24.2555 44.8172 27.7427 44.8172 31.2298C44.8468 31.4915 44.8053 31.6507 44.5032 31.7531V31.7304ZM47.85 16.2516C42.353 18.0796 36.858 19.9151 31.3649 21.7582L31.1813 21.8322C31.0154 21.8834 30.9858 21.7468 30.9384 21.6558C30.1328 20.0801 29.339 18.4986 28.569 16.9229C28.3794 16.5531 28.7289 16.5986 28.8829 16.5474C31.9 15.5311 34.919 14.5204 37.94 13.5154C40.3509 12.7076 42.7617 11.9055 45.1667 11.0807C45.4925 10.9669 45.6287 11.0238 45.759 11.3139C46.4995 12.81 47.2636 14.3004 48.0336 15.7852C48.1521 16.0525 48.1877 16.1606 47.85 16.2744V16.2516Z" fill="white"/>
</svg>
