<svg width="30" height="29" viewBox="0 0 30 29" fill="none" xmlns="http://www.w3.org/2000/svg">
<path d="M28.3222 7.2427V3.68064C28.3222 1.9621 26.9161 0.55603 25.1976 0.55603H3.32529C1.59114 0.55603 0.200684 1.9621 0.200684 3.68064V25.5529C0.200684 27.2715 1.59114 28.6775 3.32529 28.6775H25.1976C26.9161 28.6775 28.3222 27.2715 28.3222 25.5529V21.9909C29.2439 21.444 29.8845 20.4598 29.8845 19.3037V9.92986C29.8845 8.77376 29.2439 7.7895 28.3222 7.2427ZM26.7599 9.92986V19.3037H15.8237V9.92986H26.7599ZM3.32529 25.5529V3.68064H25.1976V6.80525H15.8237C14.1052 6.80525 12.6991 8.21133 12.6991 9.92986V19.3037C12.6991 21.0222 14.1052 22.4283 15.8237 22.4283H25.1976V25.5529H3.32529Z" fill="#323968"/>
</svg>
