<svg width="121" height="19" viewBox="0 0 121 19" fill="none" xmlns="http://www.w3.org/2000/svg">
<path d="M0.737968 1.2H10.914L13.242 3.528V8.232L12.21 9.264L13.986 11.04V15.48L11.466 18H0.737968V1.2ZM9.52197 8.424L10.506 7.44V4.512L9.54597 3.552H3.44997V8.424H9.52197ZM10.098 15.648L11.25 14.496V11.808L10.098 10.68H3.44997V15.648H10.098ZM22.2446 1.2H24.8846L30.9566 18H28.1246L26.6846 14.016H20.4206L18.9806 18H16.1486L22.2446 1.2ZM26.0366 11.688L23.5646 4.584H23.5166L21.0926 11.688H26.0366ZM33.8298 1.2H44.0538L46.5018 3.672V9.384L44.0298 11.88H36.6138V18H33.8298V1.2ZM42.8058 9.528L43.7658 8.568V4.512L42.8058 3.552H36.6138V9.528H42.8058ZM50.0945 1.2H61.8065V3.576H52.8785V8.376H61.1105V10.728H52.8785V15.624H61.8065V18H50.0945V1.2ZM72.663 1.2H82.839L85.167 3.528V8.232L84.135 9.264L85.911 11.04V15.48L83.391 18H72.663V1.2ZM81.447 8.424L82.431 7.44V4.512L81.471 3.552H75.375V8.424H81.447ZM82.023 15.648L83.175 14.496V11.808L82.023 10.68H75.375V15.648H82.023ZM89.2736 15.288V3.912L91.9856 1.2H100.29L103.002 3.912V15.288L100.29 18H91.9856L89.2736 15.288ZM98.8496 15.6L100.218 14.256V4.944L98.8496 3.6H93.4256L92.0576 4.944V14.256L93.4256 15.6H98.8496ZM110.756 9.336L105.164 1.2H108.284L112.316 7.128L116.348 1.2H119.468L113.9 9.432L119.708 18H116.588L112.316 11.664L108.044 18H104.924L110.756 9.336Z" fill="#F800FF"/>
<path d="M0.737968 1.2V0.699999H0.237968V1.2H0.737968ZM10.914 1.2L11.2675 0.846446L11.1211 0.699999H10.914V1.2ZM13.242 3.528H13.742V3.32089L13.5955 3.17445L13.242 3.528ZM13.242 8.232L13.5955 8.58555L13.742 8.43911V8.232H13.242ZM12.21 9.264L11.8564 8.91045L11.5029 9.264L11.8564 9.61755L12.21 9.264ZM13.986 11.04H14.486V10.8329L14.3395 10.6864L13.986 11.04ZM13.986 15.48L14.3395 15.8336L14.486 15.6871V15.48H13.986ZM11.466 18V18.5H11.6731L11.8195 18.3536L11.466 18ZM0.737968 18H0.237968V18.5H0.737968V18ZM9.52197 8.424V8.924H9.72908L9.87552 8.77755L9.52197 8.424ZM10.506 7.44L10.8595 7.79355L11.006 7.64711V7.44H10.506ZM10.506 4.512H11.006V4.30489L10.8595 4.15845L10.506 4.512ZM9.54597 3.552L9.89952 3.19845L9.75307 3.052H9.54597V3.552ZM3.44997 3.552V3.052H2.94997V3.552H3.44997ZM3.44997 8.424H2.94997V8.924H3.44997V8.424ZM10.098 15.648V16.148H10.3051L10.4515 16.0016L10.098 15.648ZM11.25 14.496L11.6035 14.8496L11.75 14.7031V14.496H11.25ZM11.25 11.808H11.75V11.5978L11.5998 11.4507L11.25 11.808ZM10.098 10.68L10.4478 10.3227L10.302 10.18H10.098V10.68ZM3.44997 10.68V10.18H2.94997V10.68H3.44997ZM3.44997 15.648H2.94997V16.148H3.44997V15.648ZM0.737968 1.7H10.914V0.699999H0.737968V1.7ZM10.5604 1.55355L12.8884 3.88155L13.5955 3.17445L11.2675 0.846446L10.5604 1.55355ZM12.742 3.528V8.232H13.742V3.528H12.742ZM12.8884 7.87845L11.8564 8.91045L12.5635 9.61755L13.5955 8.58555L12.8884 7.87845ZM11.8564 9.61755L13.6324 11.3936L14.3395 10.6864L12.5635 8.91045L11.8564 9.61755ZM13.486 11.04V15.48H14.486V11.04H13.486ZM13.6324 15.1264L11.1124 17.6464L11.8195 18.3536L14.3395 15.8336L13.6324 15.1264ZM11.466 17.5H0.737968V18.5H11.466V17.5ZM1.23797 18V1.2H0.237968V18H1.23797ZM9.87552 8.77755L10.8595 7.79355L10.1524 7.08645L9.16842 8.07045L9.87552 8.77755ZM11.006 7.44V4.512H10.006V7.44H11.006ZM10.8595 4.15845L9.89952 3.19845L9.19242 3.90555L10.1524 4.86555L10.8595 4.15845ZM9.54597 3.052H3.44997V4.052H9.54597V3.052ZM2.94997 3.552V8.424H3.94997V3.552H2.94997ZM3.44997 8.924H9.52197V7.924H3.44997V8.924ZM10.4515 16.0016L11.6035 14.8496L10.8964 14.1424L9.74442 15.2944L10.4515 16.0016ZM11.75 14.496V11.808H10.75V14.496H11.75ZM11.5998 11.4507L10.4478 10.3227L9.74816 11.0373L10.9002 12.1653L11.5998 11.4507ZM10.098 10.18H3.44997V11.18H10.098V10.18ZM2.94997 10.68V15.648H3.94997V10.68H2.94997ZM3.44997 16.148H10.098V15.148H3.44997V16.148ZM22.2446 1.2V0.699999H21.8941L21.7746 1.02945L22.2446 1.2ZM24.8846 1.2L25.3548 1.03004L25.2355 0.699999H24.8846V1.2ZM30.9566 18V18.5H31.669L31.4268 17.83L30.9566 18ZM28.1246 18L27.6544 18.17L27.7737 18.5H28.1246V18ZM26.6846 14.016L27.1548 13.846L27.0355 13.516H26.6846V14.016ZM20.4206 14.016V13.516H20.0697L19.9504 13.846L20.4206 14.016ZM18.9806 18V18.5H19.3315L19.4508 18.17L18.9806 18ZM16.1486 18L15.6786 17.8295L15.4353 18.5H16.1486V18ZM26.0366 11.688V12.188H26.74L26.5088 11.5237L26.0366 11.688ZM23.5646 4.584L24.0368 4.41968L23.92 4.084H23.5646V4.584ZM23.5166 4.584V4.084H23.1589L23.0434 4.42253L23.5166 4.584ZM21.0926 11.688L20.6194 11.5265L20.3937 12.188H21.0926V11.688ZM22.2446 1.7H24.8846V0.699999H22.2446V1.7ZM24.4144 1.36995L30.4864 18.17L31.4268 17.83L25.3548 1.03004L24.4144 1.36995ZM30.9566 17.5H28.1246V18.5H30.9566V17.5ZM28.5948 17.83L27.1548 13.846L26.2144 14.186L27.6544 18.17L28.5948 17.83ZM26.6846 13.516H20.4206V14.516H26.6846V13.516ZM19.9504 13.846L18.5104 17.83L19.4508 18.17L20.8908 14.186L19.9504 13.846ZM18.9806 17.5H16.1486V18.5H18.9806V17.5ZM16.6186 18.1705L22.7146 1.37055L21.7746 1.02945L15.6786 17.8295L16.6186 18.1705ZM26.5088 11.5237L24.0368 4.41968L23.0924 4.74832L25.5644 11.8523L26.5088 11.5237ZM23.5646 4.084H23.5166V5.084H23.5646V4.084ZM23.0434 4.42253L20.6194 11.5265L21.5658 11.8495L23.9898 4.74547L23.0434 4.42253ZM21.0926 12.188H26.0366V11.188H21.0926V12.188ZM33.8298 1.2V0.699999H33.3298V1.2H33.8298ZM44.0538 1.2L44.4091 0.848174L44.2624 0.699999H44.0538V1.2ZM46.5018 3.672H47.0018V3.46632L46.8571 3.32018L46.5018 3.672ZM46.5018 9.384L46.8571 9.73584L47.0018 9.58969V9.384H46.5018ZM44.0298 11.88V12.38H44.2384L44.3851 12.2318L44.0298 11.88ZM36.6138 11.88V11.38H36.1138V11.88H36.6138ZM36.6138 18V18.5H37.1138V18H36.6138ZM33.8298 18H33.3298V18.5H33.8298V18ZM42.8058 9.528V10.028H43.0129L43.1594 9.88155L42.8058 9.528ZM43.7658 8.568L44.1194 8.92155L44.2658 8.77511V8.568H43.7658ZM43.7658 4.512H44.2658V4.30489L44.1194 4.15845L43.7658 4.512ZM42.8058 3.552L43.1594 3.19845L43.013 3.052H42.8058V3.552ZM36.6138 3.552V3.052H36.1138V3.552H36.6138ZM36.6138 9.528H36.1138V10.028H36.6138V9.528ZM33.8298 1.7H44.0538V0.699999H33.8298V1.7ZM43.6986 1.55182L46.1466 4.02382L46.8571 3.32018L44.4091 0.848174L43.6986 1.55182ZM46.0018 3.672V9.384H47.0018V3.672H46.0018ZM46.1466 9.03216L43.6746 11.5282L44.3851 12.2318L46.8571 9.73584L46.1466 9.03216ZM44.0298 11.38H36.6138V12.38H44.0298V11.38ZM36.1138 11.88V18H37.1138V11.88H36.1138ZM36.6138 17.5H33.8298V18.5H36.6138V17.5ZM34.3298 18V1.2H33.3298V18H34.3298ZM43.1594 9.88155L44.1194 8.92155L43.4123 8.21445L42.4523 9.17445L43.1594 9.88155ZM44.2658 8.568V4.512H43.2658V8.568H44.2658ZM44.1194 4.15845L43.1594 3.19845L42.4523 3.90555L43.4123 4.86555L44.1194 4.15845ZM42.8058 3.052H36.6138V4.052H42.8058V3.052ZM36.1138 3.552V9.528H37.1138V3.552H36.1138ZM36.6138 10.028H42.8058V9.028H36.6138V10.028ZM50.0945 1.2V0.699999H49.5945V1.2H50.0945ZM61.8065 1.2H62.3065V0.699999H61.8065V1.2ZM61.8065 3.576V4.076H62.3065V3.576H61.8065ZM52.8785 3.576V3.076H52.3785V3.576H52.8785ZM52.8785 8.376H52.3785V8.876H52.8785V8.376ZM61.1105 8.376H61.6105V7.876H61.1105V8.376ZM61.1105 10.728V11.228H61.6105V10.728H61.1105ZM52.8785 10.728V10.228H52.3785V10.728H52.8785ZM52.8785 15.624H52.3785V16.124H52.8785V15.624ZM61.8065 15.624H62.3065V15.124H61.8065V15.624ZM61.8065 18V18.5H62.3065V18H61.8065ZM50.0945 18H49.5945V18.5H50.0945V18ZM50.0945 1.7H61.8065V0.699999H50.0945V1.7ZM61.3065 1.2V3.576H62.3065V1.2H61.3065ZM61.8065 3.076H52.8785V4.076H61.8065V3.076ZM52.3785 3.576V8.376H53.3785V3.576H52.3785ZM52.8785 8.876H61.1105V7.876H52.8785V8.876ZM60.6105 8.376V10.728H61.6105V8.376H60.6105ZM61.1105 10.228H52.8785V11.228H61.1105V10.228ZM52.3785 10.728V15.624H53.3785V10.728H52.3785ZM52.8785 16.124H61.8065V15.124H52.8785V16.124ZM61.3065 15.624V18H62.3065V15.624H61.3065ZM61.8065 17.5H50.0945V18.5H61.8065V17.5ZM50.5945 18V1.2H49.5945V18H50.5945ZM72.663 1.2V0.699999H72.163V1.2H72.663ZM82.839 1.2L83.1925 0.846446L83.0461 0.699999H82.839V1.2ZM85.167 3.528H85.667V3.32089L85.5205 3.17445L85.167 3.528ZM85.167 8.232L85.5205 8.58555L85.667 8.43911V8.232H85.167ZM84.135 9.264L83.7814 8.91045L83.4279 9.264L83.7814 9.61755L84.135 9.264ZM85.911 11.04H86.411V10.8329L86.2645 10.6864L85.911 11.04ZM85.911 15.48L86.2645 15.8336L86.411 15.6871V15.48H85.911ZM83.391 18V18.5H83.5981L83.7445 18.3536L83.391 18ZM72.663 18H72.163V18.5H72.663V18ZM81.447 8.424V8.924H81.6541L81.8005 8.77755L81.447 8.424ZM82.431 7.44L82.7845 7.79355L82.931 7.64711V7.44H82.431ZM82.431 4.512H82.931V4.30489L82.7845 4.15845L82.431 4.512ZM81.471 3.552L81.8245 3.19845L81.6781 3.052H81.471V3.552ZM75.375 3.552V3.052H74.875V3.552H75.375ZM75.375 8.424H74.875V8.924H75.375V8.424ZM82.023 15.648V16.148H82.2301L82.3765 16.0016L82.023 15.648ZM83.175 14.496L83.5285 14.8496L83.675 14.7031V14.496H83.175ZM83.175 11.808H83.675V11.5978L83.5248 11.4507L83.175 11.808ZM82.023 10.68L82.3728 10.3227L82.227 10.18H82.023V10.68ZM75.375 10.68V10.18H74.875V10.68H75.375ZM75.375 15.648H74.875V16.148H75.375V15.648ZM72.663 1.7H82.839V0.699999H72.663V1.7ZM82.4854 1.55355L84.8134 3.88155L85.5205 3.17445L83.1925 0.846446L82.4854 1.55355ZM84.667 3.528V8.232H85.667V3.528H84.667ZM84.8134 7.87845L83.7814 8.91045L84.4885 9.61755L85.5205 8.58555L84.8134 7.87845ZM83.7814 9.61755L85.5574 11.3936L86.2645 10.6864L84.4885 8.91045L83.7814 9.61755ZM85.411 11.04V15.48H86.411V11.04H85.411ZM85.5574 15.1264L83.0374 17.6464L83.7445 18.3536L86.2645 15.8336L85.5574 15.1264ZM83.391 17.5H72.663V18.5H83.391V17.5ZM73.163 18V1.2H72.163V18H73.163ZM81.8005 8.77755L82.7845 7.79355L82.0774 7.08645L81.0934 8.07045L81.8005 8.77755ZM82.931 7.44V4.512H81.931V7.44H82.931ZM82.7845 4.15845L81.8245 3.19845L81.1174 3.90555L82.0774 4.86555L82.7845 4.15845ZM81.471 3.052H75.375V4.052H81.471V3.052ZM74.875 3.552V8.424H75.875V3.552H74.875ZM75.375 8.924H81.447V7.924H75.375V8.924ZM82.3765 16.0016L83.5285 14.8496L82.8214 14.1424L81.6694 15.2944L82.3765 16.0016ZM83.675 14.496V11.808H82.675V14.496H83.675ZM83.5248 11.4507L82.3728 10.3227L81.6732 11.0373L82.8252 12.1653L83.5248 11.4507ZM82.023 10.18H75.375V11.18H82.023V10.18ZM74.875 10.68V15.648H75.875V10.68H74.875ZM75.375 16.148H82.023V15.148H75.375V16.148ZM89.2736 15.288H88.7736V15.4951L88.92 15.6416L89.2736 15.288ZM89.2736 3.912L88.92 3.55845L88.7736 3.70489V3.912H89.2736ZM91.9856 1.2V0.699999H91.7785L91.632 0.846446L91.9856 1.2ZM100.29 1.2L100.643 0.846446L100.497 0.699999H100.29V1.2ZM103.002 3.912H103.502V3.70489L103.355 3.55845L103.002 3.912ZM103.002 15.288L103.355 15.6416L103.502 15.4951V15.288H103.002ZM100.29 18V18.5H100.497L100.643 18.3536L100.29 18ZM91.9856 18L91.632 18.3536L91.7785 18.5H91.9856V18ZM98.8496 15.6V16.1H99.0541L99.2 15.9567L98.8496 15.6ZM100.218 14.256L100.568 14.6127L100.718 14.4657V14.256H100.218ZM100.218 4.944H100.718V4.7343L100.568 4.58733L100.218 4.944ZM98.8496 3.6L99.2 3.24333L99.0541 3.1H98.8496V3.6ZM93.4256 3.6V3.1H93.2211L93.0752 3.24333L93.4256 3.6ZM92.0576 4.944L91.7072 4.58733L91.5576 4.7343V4.944H92.0576ZM92.0576 14.256H91.5576V14.4657L91.7072 14.6127L92.0576 14.256ZM93.4256 15.6L93.0752 15.9567L93.2211 16.1H93.4256V15.6ZM89.7736 15.288V3.912H88.7736V15.288H89.7736ZM89.6272 4.26555L92.3391 1.55355L91.632 0.846446L88.92 3.55845L89.6272 4.26555ZM91.9856 1.7H100.29V0.699999H91.9856V1.7ZM99.936 1.55355L102.648 4.26555L103.355 3.55845L100.643 0.846446L99.936 1.55355ZM102.502 3.912V15.288H103.502V3.912H102.502ZM102.648 14.9344L99.936 17.6464L100.643 18.3536L103.355 15.6416L102.648 14.9344ZM100.29 17.5H91.9856V18.5H100.29V17.5ZM92.3391 17.6464L89.6272 14.9344L88.92 15.6416L91.632 18.3536L92.3391 17.6464ZM99.2 15.9567L100.568 14.6127L99.8672 13.8993L98.4992 15.2433L99.2 15.9567ZM100.718 14.256V4.944H99.7176V14.256H100.718ZM100.568 4.58733L99.2 3.24333L98.4992 3.95667L99.8672 5.30067L100.568 4.58733ZM98.8496 3.1H93.4256V4.1H98.8496V3.1ZM93.0752 3.24333L91.7072 4.58733L92.408 5.30067L93.776 3.95667L93.0752 3.24333ZM91.5576 4.944V14.256H92.5576V4.944H91.5576ZM91.7072 14.6127L93.0752 15.9567L93.776 15.2433L92.408 13.8993L91.7072 14.6127ZM93.4256 16.1H98.8496V15.1H93.4256V16.1ZM110.756 9.336L111.171 9.6152L111.361 9.33307L111.168 9.05279L110.756 9.336ZM105.164 1.2V0.699999H104.214L104.752 1.48321L105.164 1.2ZM108.284 1.2L108.698 0.918798L108.549 0.699999H108.284V1.2ZM112.316 7.128L111.903 7.4092L112.316 8.01704L112.73 7.4092L112.316 7.128ZM116.348 1.2V0.699999H116.084L115.935 0.918798L116.348 1.2ZM119.468 1.2L119.882 1.48013L120.41 0.699999H119.468V1.2ZM113.9 9.432L113.486 9.15187L113.296 9.43231L113.486 9.71255L113.9 9.432ZM119.708 18V18.5H120.651L120.122 17.7194L119.708 18ZM116.588 18L116.174 18.2795L116.322 18.5H116.588V18ZM112.316 11.664L112.731 11.3845L112.316 10.7696L111.902 11.3845L112.316 11.664ZM108.044 18V18.5H108.31L108.459 18.2795L108.044 18ZM104.924 18L104.509 17.7208L103.985 18.5H104.924V18ZM111.168 9.05279L105.576 0.916786L104.752 1.48321L110.344 9.61921L111.168 9.05279ZM105.164 1.7H108.284V0.699999H105.164V1.7ZM107.871 1.4812L111.903 7.4092L112.73 6.8468L108.698 0.918798L107.871 1.4812ZM112.73 7.4092L116.762 1.4812L115.935 0.918798L111.903 6.8468L112.73 7.4092ZM116.348 1.7H119.468V0.699999H116.348V1.7ZM119.054 0.919868L113.486 9.15187L114.314 9.71213L119.882 1.48013L119.054 0.919868ZM113.486 9.71255L119.294 18.2806L120.122 17.7194L114.314 9.15145L113.486 9.71255ZM119.708 17.5H116.588V18.5H119.708V17.5ZM117.003 17.7205L112.731 11.3845L111.902 11.9435L116.174 18.2795L117.003 17.7205ZM111.902 11.3845L107.63 17.7205L108.459 18.2795L112.731 11.9435L111.902 11.3845ZM108.044 17.5H104.924V18.5H108.044V17.5ZM105.339 18.2792L111.171 9.6152L110.341 9.0568L104.509 17.7208L105.339 18.2792Z" fill="#F800FF"/>
</svg>
