<svg width="6" height="27" viewBox="0 0 6 27" fill="none" xmlns="http://www.w3.org/2000/svg">
<path fill-rule="evenodd" clip-rule="evenodd" d="M0.677246 3.23351C0.677246 1.87943 1.77494 0.781738 3.12902 0.781738C4.48309 0.781738 5.58079 1.87943 5.58079 3.23351C5.58079 4.58759 4.48309 5.68528 3.12902 5.68528C1.77494 5.68528 0.677246 4.58759 0.677246 3.23351ZM3.12902 2.64841C2.80587 2.64841 2.54391 2.91037 2.54391 3.23351C2.54391 3.55665 2.80587 3.81861 3.12902 3.81861C3.45216 3.81861 3.71412 3.55665 3.71412 3.23351C3.71412 2.91037 3.45216 2.64841 3.12902 2.64841ZM0.677246 13.8625C0.677246 12.5084 1.77494 11.4107 3.12902 11.4107C4.48309 11.4107 5.58079 12.5084 5.58079 13.8625C5.58079 15.2166 4.48309 16.3142 3.12902 16.3142C1.77494 16.3142 0.677246 15.2166 0.677246 13.8625ZM3.12902 13.2774C2.80587 13.2774 2.54391 13.5393 2.54391 13.8625C2.54391 14.1856 2.80587 14.4476 3.12902 14.4476C3.45216 14.4476 3.71412 14.1856 3.71412 13.8625C3.71412 13.5393 3.45216 13.2774 3.12902 13.2774ZM3.12902 22.0397C1.77494 22.0397 0.677246 23.1374 0.677246 24.4914C0.677246 25.8455 1.77494 26.9432 3.12902 26.9432C4.48309 26.9432 5.58079 25.8455 5.58079 24.4914C5.58079 23.1374 4.48309 22.0397 3.12902 22.0397ZM2.54391 24.4914C2.54391 24.1683 2.80587 23.9063 3.12902 23.9063C3.45216 23.9063 3.71412 24.1683 3.71412 24.4914C3.71412 24.8146 3.45216 25.0765 3.12902 25.0765C2.80587 25.0765 2.54391 24.8146 2.54391 24.4914Z" fill="#C4C4C4"/>
</svg>
