<svg width="374" height="58" viewBox="0 0 374 58" fill="none" xmlns="http://www.w3.org/2000/svg">
<g filter="url(#filter0_d)">
<path d="M371.451 44.1395L371.878 45.0435L372.451 44.7728V44.1395H371.451ZM347.5 55.4674V56.4674H347.725L347.928 56.3714L347.5 55.4674ZM371.451 2H372.451V1H371.451V2ZM121.752 2V1H120.752V2H121.752ZM121.752 2.00022V3.00022H122.752V2.00022H121.752ZM25.9504 2.00022V1.00022H25.7258L25.5228 1.09623L25.9504 2.00022ZM2 13.3281L1.57244 12.4241L1 12.6948V13.3281H2ZM2 55.4676H1V56.4676H2V55.4676ZM133.248 55.4676V56.4676H134.248V55.4676H133.248ZM133.248 55.4674V54.4674H132.248V55.4674H133.248ZM371.023 43.2356L347.073 54.5634L347.928 56.3714L371.878 45.0435L371.023 43.2356ZM370.451 2V44.1395H372.451V2H370.451ZM121.752 3H371.451V1H121.752V3ZM122.752 2.00022V2H120.752V2.00022H122.752ZM25.9504 3.00022H121.752V1.00022H25.9504V3.00022ZM2.42756 14.232L26.3779 2.9042L25.5228 1.09623L1.57244 12.4241L2.42756 14.232ZM3 55.4676V13.3281H1V55.4676H3ZM133.248 54.4676H2V56.4676H133.248V54.4676ZM132.248 55.4674V55.4676H134.248V55.4674H132.248ZM347.5 54.4674H133.248V56.4674H347.5V54.4674Z" fill="#02D7F2"/>
</g>
<defs>
<filter id="filter0_d" x="0" y="0" width="373.451" height="57.4676" filterUnits="userSpaceOnUse" color-interpolation-filters="sRGB">
<feFlood flood-opacity="0" result="BackgroundImageFix"/>
<feColorMatrix in="SourceAlpha" type="matrix" values="0 0 0 0 0 0 0 0 0 0 0 0 0 0 0 0 0 0 127 0" result="hardAlpha"/>
<feOffset/>
<feGaussianBlur stdDeviation="0.5"/>
<feComposite in2="hardAlpha" operator="out"/>
<feColorMatrix type="matrix" values="0 0 0 0 0 0 0 0 0 0.709804 0 0 0 0 0.752941 0 0 0 1 0"/>
<feBlend mode="normal" in2="BackgroundImageFix" result="effect1_dropShadow"/>
<feBlend mode="normal" in="SourceGraphic" in2="effect1_dropShadow" result="shape"/>
</filter>
</defs>
</svg>
