<svg width="64" height="54" viewBox="0 0 64 54" fill="none" xmlns="http://www.w3.org/2000/svg">
<g filter="url(#filter0_d)">
<path d="M55 37.3729L46.6058 45H9V9H55V37.3729Z" fill="#02D7F2" fill-opacity="0.06" shape-rendering="crispEdges"/>
<path d="M46.6058 45V45.5H46.7991L46.9421 45.3701L46.6058 45ZM55 37.3729L55.3362 37.7429L55.5 37.5941V37.3729H55ZM55 9H55.5V8.5H55V9ZM9 9V8.5H8.5V9H9ZM9 45H8.5V45.5H9V45ZM46.9421 45.3701L55.3362 37.7429L54.6638 37.0028L46.2696 44.6299L46.9421 45.3701ZM55.5 37.3729V9H54.5V37.3729H55.5ZM55 8.5H9V9.5H55V8.5ZM8.5 9V45H9.5V9H8.5ZM9 45.5H46.6058V44.5H9V45.5Z" fill="#02D7F2"/>
</g>
<defs>
<filter id="filter0_d" x="0.5" y="0.5" width="63" height="53" filterUnits="userSpaceOnUse" color-interpolation-filters="sRGB">
<feFlood flood-opacity="0" result="BackgroundImageFix"/>
<feColorMatrix in="SourceAlpha" type="matrix" values="0 0 0 0 0 0 0 0 0 0 0 0 0 0 0 0 0 0 127 0" result="hardAlpha"/>
<feOffset/>
<feGaussianBlur stdDeviation="4"/>
<feComposite in2="hardAlpha" operator="out"/>
<feColorMatrix type="matrix" values="0 0 0 0 0 0 0 0 0 0.709804 0 0 0 0 0.752941 0 0 0 1 0"/>
<feBlend mode="normal" in2="BackgroundImageFix" result="effect1_dropShadow"/>
<feBlend mode="normal" in="SourceGraphic" in2="effect1_dropShadow" result="shape"/>
</filter>
</defs>
</svg>
