<svg width="194" height="45" viewBox="0 0 194 45" fill="none" xmlns="http://www.w3.org/2000/svg">
<path fill-rule="evenodd" clip-rule="evenodd" d="M19.6241 1L1 11.7283V43.7579L92.8537 43.7579L103.06 43.7579L174.725 43.7579L193 34.6991V1L103.06 1H19.6241Z" fill="#02D7F2" fill-opacity="0.06"/>
<path d="M1 11.7283L0.50085 10.8617L0 11.1503V11.7283H1ZM19.6241 1V0H19.3566L19.1249 0.133484L19.6241 1ZM1 43.7579H0V44.7579H1L1 43.7579ZM92.8537 43.7579V44.7579V43.7579ZM103.06 43.7579V42.7579V43.7579ZM174.725 43.7579V44.7579H174.959L175.169 44.6539L174.725 43.7579ZM193 34.6991L193.444 35.595L194 35.3195V34.6991H193ZM193 1H194V3.8743e-06L193 3.8147e-06V1ZM103.06 1V0V1ZM1.49915 12.5948L20.1232 1.86652L19.1249 0.133484L0.50085 10.8617L1.49915 12.5948ZM2 43.7579V11.7283H0V43.7579H2ZM92.8537 42.7579L1 42.7579L1 44.7579L92.8537 44.7579V42.7579ZM103.06 42.7579L92.8537 42.7579V44.7579L103.06 44.7579V42.7579ZM174.725 42.7579L103.06 42.7579V44.7579L174.725 44.7579V42.7579ZM192.556 33.8031L174.281 42.862L175.169 44.6539L193.444 35.595L192.556 33.8031ZM192 1V34.6991H194V1H192ZM103.06 2L193 2V3.8147e-06L103.06 0V2ZM19.6241 2H103.06V0H19.6241V2Z" fill="#02D7F2"/>
</svg>
