<svg width="445" height="79" viewBox="0 0 445 79" fill="none" xmlns="http://www.w3.org/2000/svg">
<g filter="url(#filter0_d)">
<mask id="path-1-inside-1" fill="white">
<path fill-rule="evenodd" clip-rule="evenodd" d="M413.001 70.9999L436.951 57.7515V8.46777H197.752V8.46803H31.9504L8 21.7164V71.0001H219.5V70.9999H413.001Z"/>
</mask>
<path fill-rule="evenodd" clip-rule="evenodd" d="M413.001 70.9999L436.951 57.7515V8.46777H197.752V8.46803H31.9504L8 21.7164V71.0001H219.5V70.9999H413.001Z" fill="#02D7F2" fill-opacity="0.06" shape-rendering="crispEdges"/>
<path d="M436.951 57.7515L437.919 59.5016L438.951 58.9308V57.7515H436.951ZM413.001 70.9999V72.9999H413.517L413.969 72.75L413.001 70.9999ZM436.951 8.46777H438.951V6.46777H436.951V8.46777ZM197.752 8.46777V6.46777H195.752V8.46777H197.752ZM197.752 8.46803V10.468H199.752V8.46803H197.752ZM31.9504 8.46803V6.46803H31.4341L30.9823 6.71794L31.9504 8.46803ZM8 21.7164L7.03192 19.9663L6 20.5371V21.7164H8ZM8 71.0001H6V73.0001H8V71.0001ZM219.5 71.0001V73.0001H221.5V71.0001H219.5ZM219.5 70.9999V68.9999H217.5V70.9999H219.5ZM435.983 56.0014L412.033 69.2498L413.969 72.75L437.919 59.5016L435.983 56.0014ZM434.951 8.46777V57.7515H438.951V8.46777H434.951ZM197.752 10.4678H436.951V6.46777H197.752V10.4678ZM199.752 8.46803V8.46777H195.752V8.46803H199.752ZM31.9504 10.468H197.752V6.46803H31.9504V10.468ZM8.96808 23.4664L32.9184 10.2181L30.9823 6.71794L7.03192 19.9663L8.96808 23.4664ZM10 71.0001V21.7164H6V71.0001H10ZM219.5 69.0001H8V73.0001H219.5V69.0001ZM217.5 70.9999V71.0001H221.5V70.9999H217.5ZM413.001 68.9999H219.5V72.9999H413.001V68.9999Z" fill="#02D7F2" mask="url(#path-1-inside-1)"/>
</g>
<defs>
<filter id="filter0_d" x="0" y="0.467773" width="444.951" height="78.5323" filterUnits="userSpaceOnUse" color-interpolation-filters="sRGB">
<feFlood flood-opacity="0" result="BackgroundImageFix"/>
<feColorMatrix in="SourceAlpha" type="matrix" values="0 0 0 0 0 0 0 0 0 0 0 0 0 0 0 0 0 0 127 0" result="hardAlpha"/>
<feOffset/>
<feGaussianBlur stdDeviation="4"/>
<feComposite in2="hardAlpha" operator="out"/>
<feColorMatrix type="matrix" values="0 0 0 0 0 0 0 0 0 0.709804 0 0 0 0 0.752941 0 0 0 1 0"/>
<feBlend mode="normal" in2="BackgroundImageFix" result="effect1_dropShadow"/>
<feBlend mode="normal" in="SourceGraphic" in2="effect1_dropShadow" result="shape"/>
</filter>
</defs>
</svg>
