<svg width="179" height="46" viewBox="0 0 179 46" fill="none" xmlns="http://www.w3.org/2000/svg">
<g filter="url(#filter0_d)">
<path fill-rule="evenodd" clip-rule="evenodd" d="M21.126 5L5 12.6271V41H85.6298H93.3702H157.874L174 33.3729V5H93.3702H85.6298H21.126Z" fill="#02D7F2" fill-opacity="0.06" shape-rendering="crispEdges"/>
<path d="M5 12.6271L4.78622 12.1751L4.5 12.3105V12.6271H5ZM21.126 5V4.5H21.0137L20.9122 4.54801L21.126 5ZM5 41H4.5V41.5H5V41ZM157.874 41V41.5H157.986L158.088 41.452L157.874 41ZM174 33.3729L174.214 33.8249L174.5 33.6895V33.3729H174ZM174 5H174.5V4.5H174V5ZM5.21378 13.0791L21.3397 5.45199L20.9122 4.54801L4.78622 12.1751L5.21378 13.0791ZM5.5 41V12.6271H4.5V41H5.5ZM85.6298 40.5H5V41.5H85.6298V40.5ZM93.3702 40.5H85.6298V41.5H93.3702V40.5ZM157.874 40.5H93.3702V41.5H157.874V40.5ZM173.786 32.9209L157.66 40.548L158.088 41.452L174.214 33.8249L173.786 32.9209ZM173.5 5V33.3729H174.5V5H173.5ZM93.3702 5.5H174V4.5H93.3702V5.5ZM85.6298 5.5H93.3702V4.5H85.6298V5.5ZM21.126 5.5H85.6298V4.5H21.126V5.5Z" fill="#02D7F2"/>
</g>
<defs>
<filter id="filter0_d" x="0.5" y="0.5" width="178" height="45" filterUnits="userSpaceOnUse" color-interpolation-filters="sRGB">
<feFlood flood-opacity="0" result="BackgroundImageFix"/>
<feColorMatrix in="SourceAlpha" type="matrix" values="0 0 0 0 0 0 0 0 0 0 0 0 0 0 0 0 0 0 127 0" result="hardAlpha"/>
<feOffset/>
<feGaussianBlur stdDeviation="2"/>
<feComposite in2="hardAlpha" operator="out"/>
<feColorMatrix type="matrix" values="0 0 0 0 0 0 0 0 0 0.709804 0 0 0 0 0.752941 0 0 0 1 0"/>
<feBlend mode="normal" in2="BackgroundImageFix" result="effect1_dropShadow"/>
<feBlend mode="normal" in="SourceGraphic" in2="effect1_dropShadow" result="shape"/>
</filter>
</defs>
</svg>
