<svg width="271" height="270" viewBox="0 0 271 270" fill="none" xmlns="http://www.w3.org/2000/svg">
<g filter="url(#filter0_d)">
<circle cx="135" cy="135" r="120" fill="#F29B4A"/>
<path d="M255.5 135C255.5 160.342 247.477 185.033 232.582 205.534C217.687 226.036 196.683 241.296 172.582 249.127C148.481 256.958 122.519 256.958 98.418 249.127C74.3167 241.296 53.3133 226.036 38.418 205.534L135.5 135H255.5Z" fill="#0B62D8"/>
<path d="M83.0864 243.19C64.8633 234.445 49.1441 221.24 37.3875 204.798L135 135L83.0864 243.19Z" fill="#51D7E0"/>
<path d="M97.4513 21.0259C117.545 14.4061 139.031 13.2161 159.733 17.5765C180.435 21.937 199.616 31.6929 215.332 45.8555L135 135L97.4513 21.0259Z" fill="#AD24B0"/>
<path d="M38.2171 205.944C27.0214 190.671 19.5993 172.965 16.5578 154.273C13.5163 135.582 14.9417 116.436 20.7175 98.4008C26.4932 80.3658 36.4553 63.9538 49.7892 50.5066C63.1232 37.0595 79.4504 26.959 97.4359 21.031L135 135L38.2171 205.944Z" fill="#EB57C2"/>
</g>
<defs>
<filter id="filter0_d" x="0" y="0" width="270.5" height="270" filterUnits="userSpaceOnUse" color-interpolation-filters="sRGB">
<feFlood flood-opacity="0" result="BackgroundImageFix"/>
<feColorMatrix in="SourceAlpha" type="matrix" values="0 0 0 0 0 0 0 0 0 0 0 0 0 0 0 0 0 0 127 0" result="hardAlpha"/>
<feOffset/>
<feGaussianBlur stdDeviation="7.5"/>
<feComposite in2="hardAlpha" operator="out"/>
<feColorMatrix type="matrix" values="0 0 0 0 1 0 0 0 0 1 0 0 0 0 1 0 0 0 0.2 0"/>
<feBlend mode="normal" in2="BackgroundImageFix" result="effect1_dropShadow"/>
<feBlend mode="normal" in="SourceGraphic" in2="effect1_dropShadow" result="shape"/>
</filter>
</defs>
</svg>
