<svg width="113" height="19" viewBox="0 0 113 19" fill="none" xmlns="http://www.w3.org/2000/svg">
<path d="M1.08562 1.2H3.86962V8.424H6.86962L11.0216 1.2H14.1176L9.24563 9.576L14.5256 18H11.3576L6.86962 10.824H3.86962V18H1.08562V1.2ZM17.5172 1.2H20.3012V18H17.5172V1.2ZM28.5722 3.576H23.5322V1.2H36.3962V3.576H31.3562V18H28.5722V3.576ZM39.5203 1.2H42.3043V8.424H49.9363V1.2H52.7203V18H49.9363V10.824H42.3043V18H39.5203V1.2ZM64.3153 1.2H74.4913L76.8193 3.528V8.232L75.7873 9.264L77.5633 11.04V15.48L75.0433 18H64.3153V1.2ZM73.0993 8.424L74.0833 7.44V4.512L73.1233 3.552H67.0273V8.424H73.0993ZM73.6753 15.648L74.8273 14.496V11.808L73.6753 10.68H67.0273V15.648H73.6753ZM80.9259 15.288V3.912L83.6379 1.2H91.9419L94.6539 3.912V15.288L91.9419 18H83.6379L80.9259 15.288ZM90.5019 15.6L91.8699 14.256V4.944L90.5019 3.6H85.0779L83.7099 4.944V14.256L85.0779 15.6H90.5019ZM102.409 9.336L96.8166 1.2H99.9366L103.969 7.128L108.001 1.2H111.121L105.553 9.432L111.361 18H108.241L103.969 11.664L99.6966 18H96.5766L102.409 9.336Z" fill="#F800FF"/>
<path d="M1.08562 1.2V0.699999H0.585624V1.2H1.08562ZM3.86962 1.2H4.36962V0.699999H3.86962V1.2ZM3.86962 8.424H3.36962V8.924H3.86962V8.424ZM6.86963 8.424V8.924H7.15895L7.30312 8.67315L6.86963 8.424ZM11.0216 1.2V0.699999H10.7323L10.5881 0.950844L11.0216 1.2ZM14.1176 1.2L14.5498 1.4514L14.9869 0.699999H14.1176V1.2ZM9.24562 9.576L8.81342 9.3246L8.66158 9.58565L8.82197 9.84154L9.24562 9.576ZM14.5256 18V18.5H15.4291L14.9493 17.7345L14.5256 18ZM11.3576 18L10.9337 18.2651L11.0806 18.5H11.3576V18ZM6.86963 10.824L7.29354 10.5589L7.14665 10.324H6.86963V10.824ZM3.86962 10.824V10.324H3.36962V10.824H3.86962ZM3.86962 18V18.5H4.36962V18H3.86962ZM1.08562 18H0.585624V18.5H1.08562V18ZM1.08562 1.7H3.86962V0.699999H1.08562V1.7ZM3.36962 1.2V8.424H4.36962V1.2H3.36962ZM3.86962 8.924H6.86963V7.924H3.86962V8.924ZM7.30312 8.67315L11.4551 1.44915L10.5881 0.950844L6.43612 8.17484L7.30312 8.67315ZM11.0216 1.7H14.1176V0.699999H11.0216V1.7ZM13.6854 0.948603L8.81342 9.3246L9.67783 9.8274L14.5498 1.4514L13.6854 0.948603ZM8.82197 9.84154L14.102 18.2655L14.9493 17.7345L9.66928 9.31046L8.82197 9.84154ZM14.5256 17.5H11.3576V18.5H14.5256V17.5ZM11.7815 17.7349L7.29354 10.5589L6.44571 11.0891L10.9337 18.2651L11.7815 17.7349ZM6.86963 10.324H3.86962V11.324H6.86963V10.324ZM3.36962 10.824V18H4.36962V10.824H3.36962ZM3.86962 17.5H1.08562V18.5H3.86962V17.5ZM1.58562 18V1.2H0.585624V18H1.58562ZM17.5172 1.2V0.699999H17.0172V1.2H17.5172ZM20.3012 1.2H20.8012V0.699999H20.3012V1.2ZM20.3012 18V18.5H20.8012V18H20.3012ZM17.5172 18H17.0172V18.5H17.5172V18ZM17.5172 1.7H20.3012V0.699999H17.5172V1.7ZM19.8012 1.2V18H20.8012V1.2H19.8012ZM20.3012 17.5H17.5172V18.5H20.3012V17.5ZM18.0172 18V1.2H17.0172V18H18.0172ZM28.5722 3.576H29.0722V3.076H28.5722V3.576ZM23.5322 3.576H23.0322V4.076H23.5322V3.576ZM23.5322 1.2V0.699999H23.0322V1.2H23.5322ZM36.3962 1.2H36.8962V0.699999H36.3962V1.2ZM36.3962 3.576V4.076H36.8962V3.576H36.3962ZM31.3562 3.576V3.076H30.8562V3.576H31.3562ZM31.3562 18V18.5H31.8562V18H31.3562ZM28.5722 18H28.0722V18.5H28.5722V18ZM28.5722 3.076H23.5322V4.076H28.5722V3.076ZM24.0322 3.576V1.2H23.0322V3.576H24.0322ZM23.5322 1.7H36.3962V0.699999H23.5322V1.7ZM35.8962 1.2V3.576H36.8962V1.2H35.8962ZM36.3962 3.076H31.3562V4.076H36.3962V3.076ZM30.8562 3.576V18H31.8562V3.576H30.8562ZM31.3562 17.5H28.5722V18.5H31.3562V17.5ZM29.0722 18V3.576H28.0722V18H29.0722ZM39.5203 1.2V0.699999H39.0203V1.2H39.5203ZM42.3043 1.2H42.8043V0.699999H42.3043V1.2ZM42.3043 8.424H41.8043V8.924H42.3043V8.424ZM49.9363 8.424V8.924H50.4363V8.424H49.9363ZM49.9363 1.2V0.699999H49.4363V1.2H49.9363ZM52.7203 1.2H53.2203V0.699999H52.7203V1.2ZM52.7203 18V18.5H53.2203V18H52.7203ZM49.9363 18H49.4363V18.5H49.9363V18ZM49.9363 10.824H50.4363V10.324H49.9363V10.824ZM42.3043 10.824V10.324H41.8043V10.824H42.3043ZM42.3043 18V18.5H42.8043V18H42.3043ZM39.5203 18H39.0203V18.5H39.5203V18ZM39.5203 1.7H42.3043V0.699999H39.5203V1.7ZM41.8043 1.2V8.424H42.8043V1.2H41.8043ZM42.3043 8.924H49.9363V7.924H42.3043V8.924ZM50.4363 8.424V1.2H49.4363V8.424H50.4363ZM49.9363 1.7H52.7203V0.699999H49.9363V1.7ZM52.2203 1.2V18H53.2203V1.2H52.2203ZM52.7203 17.5H49.9363V18.5H52.7203V17.5ZM50.4363 18V10.824H49.4363V18H50.4363ZM49.9363 10.324H42.3043V11.324H49.9363V10.324ZM41.8043 10.824V18H42.8043V10.824H41.8043ZM42.3043 17.5H39.5203V18.5H42.3043V17.5ZM40.0203 18V1.2H39.0203V18H40.0203ZM64.3153 1.2V0.699999H63.8153V1.2H64.3153ZM74.4913 1.2L74.8449 0.846446L74.6984 0.699999H74.4913V1.2ZM76.8193 3.528H77.3193V3.32089L77.1729 3.17445L76.8193 3.528ZM76.8193 8.232L77.1729 8.58555L77.3193 8.43911V8.232H76.8193ZM75.7873 9.264L75.4338 8.91045L75.0802 9.264L75.4338 9.61755L75.7873 9.264ZM77.5633 11.04H78.0633V10.8329L77.9169 10.6864L77.5633 11.04ZM77.5633 15.48L77.9169 15.8336L78.0633 15.6871V15.48H77.5633ZM75.0433 18V18.5H75.2504L75.3969 18.3536L75.0433 18ZM64.3153 18H63.8153V18.5H64.3153V18ZM73.0993 8.424V8.924H73.3064L73.4529 8.77755L73.0993 8.424ZM74.0833 7.44L74.4369 7.79355L74.5833 7.64711V7.44H74.0833ZM74.0833 4.512H74.5833V4.30489L74.4369 4.15845L74.0833 4.512ZM73.1233 3.552L73.4769 3.19845L73.3304 3.052H73.1233V3.552ZM67.0273 3.552V3.052H66.5273V3.552H67.0273ZM67.0273 8.424H66.5273V8.924H67.0273V8.424ZM73.6753 15.648V16.148H73.8824L74.0289 16.0016L73.6753 15.648ZM74.8273 14.496L75.1809 14.8496L75.3273 14.7031V14.496H74.8273ZM74.8273 11.808H75.3273V11.5978L75.1771 11.4507L74.8273 11.808ZM73.6753 10.68L74.0251 10.3227L73.8793 10.18H73.6753V10.68ZM67.0273 10.68V10.18H66.5273V10.68H67.0273ZM67.0273 15.648H66.5273V16.148H67.0273V15.648ZM64.3153 1.7H74.4913V0.699999H64.3153V1.7ZM74.1378 1.55355L76.4658 3.88155L77.1729 3.17445L74.8449 0.846446L74.1378 1.55355ZM76.3193 3.528V8.232H77.3193V3.528H76.3193ZM76.4658 7.87845L75.4338 8.91045L76.1409 9.61755L77.1729 8.58555L76.4658 7.87845ZM75.4338 9.61755L77.2098 11.3936L77.9169 10.6864L76.1409 8.91045L75.4338 9.61755ZM77.0633 11.04V15.48H78.0633V11.04H77.0633ZM77.2098 15.1264L74.6898 17.6464L75.3969 18.3536L77.9169 15.8336L77.2098 15.1264ZM75.0433 17.5H64.3153V18.5H75.0433V17.5ZM64.8153 18V1.2H63.8153V18H64.8153ZM73.4529 8.77755L74.4369 7.79355L73.7298 7.08645L72.7458 8.07045L73.4529 8.77755ZM74.5833 7.44V4.512H73.5833V7.44H74.5833ZM74.4369 4.15845L73.4769 3.19845L72.7698 3.90555L73.7298 4.86555L74.4369 4.15845ZM73.1233 3.052H67.0273V4.052H73.1233V3.052ZM66.5273 3.552V8.424H67.5273V3.552H66.5273ZM67.0273 8.924H73.0993V7.924H67.0273V8.924ZM74.0289 16.0016L75.1809 14.8496L74.4738 14.1424L73.3218 15.2944L74.0289 16.0016ZM75.3273 14.496V11.808H74.3273V14.496H75.3273ZM75.1771 11.4507L74.0251 10.3227L73.3255 11.0373L74.4775 12.1653L75.1771 11.4507ZM73.6753 10.18H67.0273V11.18H73.6753V10.18ZM66.5273 10.68V15.648H67.5273V10.68H66.5273ZM67.0273 16.148H73.6753V15.148H67.0273V16.148ZM80.9259 15.288H80.4259V15.4951L80.5724 15.6416L80.9259 15.288ZM80.9259 3.912L80.5724 3.55845L80.4259 3.70489V3.912H80.9259ZM83.6379 1.2V0.699999H83.4308L83.2844 0.846446L83.6379 1.2ZM91.9419 1.2L92.2955 0.846446L92.149 0.699999H91.9419V1.2ZM94.6539 3.912H95.1539V3.70489L95.0075 3.55845L94.6539 3.912ZM94.6539 15.288L95.0075 15.6416L95.1539 15.4951V15.288H94.6539ZM91.9419 18V18.5H92.149L92.2955 18.3536L91.9419 18ZM83.6379 18L83.2844 18.3536L83.4308 18.5H83.6379V18ZM90.5019 15.6V16.1H90.7065L90.8523 15.9567L90.5019 15.6ZM91.8699 14.256L92.2204 14.6127L92.3699 14.4657V14.256H91.8699ZM91.8699 4.944H92.3699V4.7343L92.2204 4.58733L91.8699 4.944ZM90.5019 3.6L90.8523 3.24333L90.7065 3.1H90.5019V3.6ZM85.0779 3.6V3.1H84.8734L84.7275 3.24333L85.0779 3.6ZM83.7099 4.944L83.3595 4.58733L83.2099 4.7343V4.944H83.7099ZM83.7099 14.256H83.2099V14.4657L83.3595 14.6127L83.7099 14.256ZM85.0779 15.6L84.7275 15.9567L84.8734 16.1H85.0779V15.6ZM81.4259 15.288V3.912H80.4259V15.288H81.4259ZM81.2795 4.26555L83.9915 1.55355L83.2844 0.846446L80.5724 3.55845L81.2795 4.26555ZM83.6379 1.7H91.9419V0.699999H83.6379V1.7ZM91.5884 1.55355L94.3004 4.26555L95.0075 3.55845L92.2955 0.846446L91.5884 1.55355ZM94.1539 3.912V15.288H95.1539V3.912H94.1539ZM94.3004 14.9344L91.5884 17.6464L92.2955 18.3536L95.0075 15.6416L94.3004 14.9344ZM91.9419 17.5H83.6379V18.5H91.9419V17.5ZM83.9915 17.6464L81.2795 14.9344L80.5724 15.6416L83.2844 18.3536L83.9915 17.6464ZM90.8523 15.9567L92.2204 14.6127L91.5195 13.8993L90.1515 15.2433L90.8523 15.9567ZM92.3699 14.256V4.944H91.3699V14.256H92.3699ZM92.2204 4.58733L90.8523 3.24333L90.1515 3.95667L91.5195 5.30067L92.2204 4.58733ZM90.5019 3.1H85.0779V4.1H90.5019V3.1ZM84.7275 3.24333L83.3595 4.58733L84.0603 5.30067L85.4284 3.95667L84.7275 3.24333ZM83.2099 4.944V14.256H84.2099V4.944H83.2099ZM83.3595 14.6127L84.7275 15.9567L85.4284 15.2433L84.0603 13.8993L83.3595 14.6127ZM85.0779 16.1H90.5019V15.1H85.0779V16.1ZM102.409 9.336L102.823 9.6152L103.013 9.33307L102.821 9.05279L102.409 9.336ZM96.8166 1.2V0.699999H95.8662L96.4045 1.48321L96.8166 1.2ZM99.9366 1.2L100.35 0.918798L100.201 0.699999H99.9366V1.2ZM103.969 7.128L103.555 7.4092L103.969 8.01704L104.382 7.4092L103.969 7.128ZM108.001 1.2V0.699999H107.736L107.587 0.918798L108.001 1.2ZM111.121 1.2L111.535 1.48013L112.062 0.699999H111.121V1.2ZM105.553 9.432L105.138 9.15187L104.949 9.43231L105.139 9.71255L105.553 9.432ZM111.361 18V18.5H112.304L111.774 17.7194L111.361 18ZM108.241 18L107.826 18.2795L107.975 18.5H108.241V18ZM103.969 11.664L104.383 11.3845L103.969 10.7696L103.554 11.3845L103.969 11.664ZM99.6966 18V18.5H99.9625L100.111 18.2795L99.6966 18ZM96.5766 18L96.1618 17.7208L95.6373 18.5H96.5766V18ZM102.821 9.05279L97.2286 0.916786L96.4045 1.48321L101.997 9.61921L102.821 9.05279ZM96.8166 1.7H99.9366V0.699999H96.8166V1.7ZM99.5231 1.4812L103.555 7.4092L104.382 6.8468L100.35 0.918798L99.5231 1.4812ZM104.382 7.4092L108.414 1.4812L107.587 0.918798L103.555 6.8468L104.382 7.4092ZM108.001 1.7H111.121V0.699999H108.001V1.7ZM110.706 0.919868L105.138 9.15187L105.967 9.71213L111.535 1.48013L110.706 0.919868ZM105.139 9.71255L110.947 18.2806L111.774 17.7194L105.966 9.15145L105.139 9.71255ZM111.361 17.5H108.241V18.5H111.361V17.5ZM108.655 17.7205L104.383 11.3845L103.554 11.9435L107.826 18.2795L108.655 17.7205ZM103.554 11.3845L99.282 17.7205L100.111 18.2795L104.383 11.9435L103.554 11.3845ZM99.6966 17.5H96.5766V18.5H99.6966V17.5ZM96.9913 18.2792L102.823 9.6152L101.994 9.0568L96.1618 17.7208L96.9913 18.2792Z" fill="#F800FF"/>
</svg>
