<svg width="281" height="68" viewBox="0 0 281 68" fill="none" xmlns="http://www.w3.org/2000/svg">
<path fill-rule="evenodd" clip-rule="evenodd" d="M28.0631 1L1 17.5V66.7615L134.475 66.7615L149.306 66.7615L253.444 66.7615L280 52.829V1.00001L149.306 1H28.0631Z" fill="#02D7F2"/>
<path d="M1 17.5L0.479436 16.6462L0 16.9385V17.5H1ZM28.0631 1V0H27.7823L27.5425 0.146178L28.0631 1ZM1 66.7615H0V67.7615H1L1 66.7615ZM134.475 66.7615V67.7615V66.7615ZM149.306 66.7615V65.7615V66.7615ZM253.444 66.7615V67.7615H253.691L253.909 67.647L253.444 66.7615ZM280 52.829L280.465 53.7145L281 53.4336V52.829H280ZM280 1.00001H281V7.689e-06L280 7.62939e-06V1.00001ZM149.306 1V0V1ZM1.52056 18.3538L28.5836 1.85382L27.5425 0.146178L0.479436 16.6462L1.52056 18.3538ZM2 66.7615V17.5H0V66.7615H2ZM134.475 65.7615L1 65.7615L1 67.7615L134.475 67.7615V65.7615ZM149.306 65.7615L134.475 65.7615V67.7615L149.306 67.7615V65.7615ZM253.444 65.7615L149.306 65.7615V67.7615L253.444 67.7615V65.7615ZM279.535 51.9434L252.98 65.876L253.909 67.647L280.465 53.7145L279.535 51.9434ZM279 1.00001V52.829H281V1.00001H279ZM149.306 2L280 2.00001V7.62939e-06L149.306 0V2ZM28.0631 2H149.306V0H28.0631V2Z" fill="#02D7F2" fill-opacity="0.06"/>
</svg>
