<svg width="11" height="8" viewBox="0 0 11 8" fill="none" xmlns="http://www.w3.org/2000/svg">
<path d="M-9.72748e-05 6.62975C0.106073 7.59678 0.636935 8.02525 1.30118 7.62653C4.10518 5.94836 6.86562 4.17795 9.62334 2.41349C10.0671 2.11594 10.3284 1.63391 10.0072 1.05369C9.95552 0.931427 9.87968 0.823216 9.78513 0.73685C9.69058 0.650485 9.57967 0.58812 9.46041 0.554252C9.34115 0.520383 9.2165 0.515858 9.09544 0.540994C8.97439 0.566131 8.85994 0.620309 8.76035 0.699621C5.98902 2.44722 3.22496 4.20473 0.468152 5.97217C0.253088 6.10904 0.136019 6.43039 -9.72748e-05 6.62975Z" fill="#F337F8"/>
</svg>
