<svg width="39" height="38" viewBox="0 0 39 38" fill="none" xmlns="http://www.w3.org/2000/svg">
<path d="M38.3022 21.3096C37.6495 18.2468 34.4435 16.1294 31.3884 16.9772C31.1176 17.0527 31.0731 17.0039 31.0731 16.7331C31.0731 14.1053 31.0731 11.473 31.0731 8.84518C31.0807 8.65353 31.0484 8.46239 30.9782 8.28388C30.908 8.10537 30.8015 7.94337 30.6654 7.80816C30.5294 7.67296 30.3666 7.56748 30.1876 7.49842C30.0086 7.42936 29.8172 7.39822 29.6255 7.40698C27.0279 7.44249 24.4302 7.40698 21.837 7.40698C21.3929 7.40698 21.3929 7.40698 21.5084 7.00748C21.6613 6.42885 21.7138 5.8283 21.6638 5.23192C21.5828 4.44031 21.3377 3.67424 20.9442 2.9825C20.5507 2.29077 20.0174 1.68854 19.3783 1.21417C18.7392 0.739801 18.0083 0.40369 17.232 0.227246C16.4558 0.0508015 15.6514 0.0378915 14.8699 0.189339C11.6905 0.841857 9.64789 4.09113 10.4916 7.05631C10.5759 7.35815 10.5315 7.42917 10.2029 7.42917C7.57418 7.42917 4.94097 7.42917 2.31222 7.42917C2.12332 7.40957 1.93245 7.43243 1.75352 7.49605C1.5746 7.55968 1.41217 7.66248 1.27809 7.79693C1.14402 7.93138 1.04169 8.09409 0.978611 8.27315C0.915527 8.45221 0.89328 8.6431 0.913484 8.83186C0.913484 12.4658 0.913484 16.1013 0.913484 19.7382C0.913484 19.8403 0.913484 19.9424 0.913484 20.0445C0.930746 20.2199 0.985949 20.3895 1.07526 20.5415C1.16457 20.6935 1.28584 20.8242 1.43071 20.9247C1.57557 21.0252 1.74057 21.093 1.91424 21.1234C2.08792 21.1539 2.26614 21.1462 2.43656 21.101C2.80539 20.9755 3.11927 20.7261 3.32466 20.3952C3.81992 19.8023 4.5103 19.4051 5.27197 19.275C6.03364 19.1448 6.81676 19.2902 7.48093 19.685C8.15883 20.0935 8.66669 20.7326 8.91137 21.4852C9.15605 22.2377 9.12115 23.0532 8.81307 23.7821C8.58838 24.3067 8.22923 24.7629 7.77185 25.1045C7.31446 25.4461 6.77503 25.6611 6.20798 25.7277C5.64093 25.7944 5.06635 25.7103 4.54218 25.4841C4.01801 25.2578 3.56282 24.8973 3.22253 24.439C3.07455 24.1983 2.85071 24.0136 2.58625 23.914C2.32179 23.8144 2.0317 23.8054 1.7616 23.8886C1.49254 23.9834 1.26376 24.1669 1.11285 24.4089C0.96194 24.6509 0.897881 24.937 0.931236 25.2203C0.931236 28.8779 0.931236 32.5356 0.931236 36.1932C0.911707 36.3799 0.934132 36.5685 0.996851 36.7454C1.05957 36.9224 1.161 37.083 1.29376 37.2157C1.42652 37.3485 1.58726 37.4499 1.76423 37.5126C1.9412 37.5752 2.12993 37.5977 2.31666 37.5781C11.4403 37.5781 20.5655 37.5781 29.6922 37.5781C29.8772 37.5876 30.0622 37.5583 30.2352 37.4922C30.4083 37.4261 30.5657 37.3246 30.6973 37.1943C30.829 37.064 30.932 36.9076 30.9998 36.7352C31.0675 36.5629 31.0986 36.3783 31.0909 36.1932C31.0598 34.2845 31.0909 32.3713 31.0909 30.4626V27.928C31.2819 27.9679 31.4284 27.9946 31.5705 28.0301C32.4845 28.2621 33.4448 28.2376 34.3458 27.9591C35.7159 27.5434 36.8813 26.6311 37.6132 25.4009C38.3452 24.1707 38.5909 22.7115 38.3022 21.3096ZM35.114 24.7053C34.5743 25.3007 33.8304 25.6713 33.03 25.7437C32.2295 25.8161 31.4312 25.5848 30.7934 25.096C30.0518 24.5367 29.2348 24.7231 28.884 25.2425C28.7111 25.5262 28.6304 25.8565 28.6531 26.1879C28.6531 29.0466 28.6531 31.9052 28.6531 34.7639C28.6531 35.0391 28.5954 35.1234 28.3023 35.1234C20.1052 35.1234 11.9051 35.1234 3.70208 35.1234C3.44454 35.1234 3.36019 35.0746 3.36019 34.795C3.36019 32.4201 3.36019 30.0409 3.36019 27.6572C6.46852 28.798 8.95962 28.1011 10.7447 25.2824C11.3159 24.3153 11.5794 23.1974 11.5001 22.0772C11.4208 20.9569 11.0024 19.8872 10.3006 19.0102C9.50903 17.9833 8.38966 17.2582 7.12865 16.9554C5.86764 16.6526 4.54091 16.7903 3.36905 17.3457C3.36905 14.9043 3.36905 12.5117 3.36905 10.1236C3.36905 9.84837 3.48896 9.84837 3.69322 9.84837H12.3077C12.628 9.87166 12.948 9.79903 13.2269 9.63974C13.3585 9.55323 13.4717 9.44155 13.56 9.31114C13.6482 9.18073 13.7098 9.03415 13.7412 8.87986C13.7725 8.72556 13.7731 8.56658 13.7427 8.41208C13.7124 8.25757 13.6518 8.11059 13.5644 7.9796C13.1514 7.44558 12.8782 6.81699 12.7695 6.15077C12.6924 5.51068 12.8074 4.86211 13.1001 4.28758C13.3927 3.71305 13.8497 3.23854 14.413 2.92442C14.9762 2.61031 15.6202 2.47079 16.2629 2.52362C16.9057 2.57645 17.5183 2.81924 18.0226 3.2211C18.6887 3.73093 19.1276 4.48203 19.2447 5.31242C19.3619 6.1428 19.1478 6.98594 18.6487 7.66C18.4833 7.83466 18.365 8.04857 18.3052 8.28156C18.2454 8.51455 18.2459 8.75894 18.3068 8.99166C18.3713 9.21844 18.5029 9.42039 18.6844 9.57094C18.8659 9.72148 19.0888 9.81356 19.3237 9.83505C19.4716 9.84381 19.6198 9.84381 19.7677 9.83505C22.6141 9.83505 25.4604 9.83505 28.3112 9.83505C28.5998 9.83505 28.6575 9.90608 28.6575 10.1857C28.6575 13.0577 28.6575 15.9252 28.6575 18.7972C28.6296 19.118 28.7076 19.4392 28.8796 19.7116C28.9685 19.842 29.0825 19.9535 29.215 20.0394C29.3475 20.1254 29.4957 20.1841 29.6511 20.2122C29.8065 20.2403 29.9659 20.2372 30.1201 20.2031C30.2743 20.1689 30.4202 20.1045 30.5492 20.0134C30.9553 19.7194 31.4048 19.4903 31.8813 19.3343C32.5652 19.1488 33.291 19.1911 33.9487 19.455C34.6063 19.7188 35.1601 20.1897 35.526 20.7963C35.8919 21.403 36.0501 22.1123 35.9765 22.8169C35.903 23.5214 35.6017 24.1828 35.1184 24.7009L35.114 24.7053Z" fill="#6161C1" fill-opacity="0.5"/>
</svg>
