<svg width="33" height="33" viewBox="0 0 33 33" fill="none" xmlns="http://www.w3.org/2000/svg">
<path d="M22.8539 17.7136C24.4294 16.4809 25.5793 14.7905 26.1438 12.8776C26.7082 10.9646 26.6591 8.92428 26.0032 7.04039C25.3474 5.15651 24.1174 3.52276 22.4845 2.36644C20.8515 1.21013 18.8967 0.588745 16.8921 0.588745C14.8875 0.588745 12.9327 1.21013 11.2998 2.36644C9.66681 3.52276 8.43684 5.15651 7.78098 7.04039C7.12513 8.92428 7.07601 10.9646 7.64045 12.8776C8.20489 14.7905 9.35483 16.4809 10.9303 17.7136C8.23072 18.7893 5.87525 20.5733 4.11499 22.8755C2.35473 25.1778 1.25568 27.9119 0.934986 30.7865C0.911773 30.9963 0.930352 31.2087 0.989663 31.4114C1.04897 31.6142 1.14786 31.8033 1.28066 31.968C1.54888 32.3007 1.93899 32.5138 2.36518 32.5604C2.79137 32.607 3.21873 32.4834 3.55325 32.2166C3.88776 31.9499 4.10203 31.5619 4.14891 31.1381C4.50177 28.014 5.99962 25.1287 8.35629 23.0335C10.7129 20.9383 13.7632 19.7801 16.9243 19.7801C20.0853 19.7801 23.1356 20.9383 25.4922 23.0335C27.8489 25.1287 29.3467 28.014 29.6996 31.1381C29.7433 31.5308 29.9317 31.8934 30.2285 32.1561C30.5252 32.4188 30.9093 32.5628 31.3066 32.5604H31.4833C31.9046 32.5122 32.2896 32.3004 32.5545 31.9711C32.8193 31.6418 32.9426 31.2217 32.8974 30.8024C32.5752 27.9197 31.4703 25.1786 29.701 22.8728C27.9317 20.567 25.5647 18.7836 22.8539 17.7136ZM16.8921 16.579C15.6208 16.579 14.378 16.204 13.321 15.5016C12.2639 14.7992 11.4401 13.8008 10.9536 12.6327C10.467 11.4646 10.3398 10.1793 10.5878 8.93926C10.8358 7.69922 11.448 6.56018 12.3469 5.66616C13.2459 4.77214 14.3912 4.16331 15.6381 3.91665C16.885 3.66999 18.1774 3.79658 19.3519 4.28042C20.5265 4.76426 21.5304 5.58361 22.2367 6.63487C22.943 7.68612 23.32 8.92206 23.32 10.1864C23.32 11.8818 22.6427 13.5078 21.4373 14.7066C20.2318 15.9055 18.5969 16.579 16.8921 16.579Z" fill="#323868"/>
</svg>
