<svg width="30" height="29" viewBox="0 0 30 29" fill="none" xmlns="http://www.w3.org/2000/svg">
<path d="M28.3217 7.2427V3.68064C28.3217 1.9621 26.9156 0.55603 25.1971 0.55603H3.32481C1.59065 0.55603 0.200195 1.9621 0.200195 3.68064V25.5529C0.200195 27.2715 1.59065 28.6775 3.32481 28.6775H25.1971C26.9156 28.6775 28.3217 27.2715 28.3217 25.5529V21.9909C29.2435 21.444 29.884 20.4598 29.884 19.3037V9.92986C29.884 8.77376 29.2435 7.7895 28.3217 7.2427ZM26.7594 9.92986V19.3037H15.8232V9.92986H26.7594ZM3.32481 25.5529V3.68064H25.1971V6.80525H15.8232C14.1047 6.80525 12.6986 8.21133 12.6986 9.92986V19.3037C12.6986 21.0222 14.1047 22.4283 15.8232 22.4283H25.1971V25.5529H3.32481Z" fill="#6161C1" fill-opacity="0.5"/>
</svg>
