<svg width="52" height="41" viewBox="0 0 52 41" fill="none" xmlns="http://www.w3.org/2000/svg">
<path d="M51.528 16.1777C50.2683 13.6861 49.0184 11.1869 47.7785 8.68006C47.6742 8.46008 47.5244 8.26285 47.338 8.10047C47.1516 7.93809 46.9325 7.81398 46.6944 7.73575L26.9218 1.08574C26.5564 0.95791 26.1558 0.95791 25.7904 1.08574L6.12427 7.71868C5.90789 7.78358 5.70728 7.88952 5.53431 8.03023C5.36133 8.17094 5.21955 8.34355 5.1173 8.53785C3.80228 11.1148 2.48133 13.6576 1.18408 16.2687C1.074 16.4528 1.00972 16.6588 0.996297 16.8707C0.982874 17.0826 1.02068 17.2946 1.10671 17.4901C1.19274 17.6856 1.3247 17.8594 1.49226 17.9979C1.65982 18.1363 1.85844 18.2357 2.07261 18.2882C2.89005 18.5783 3.70752 18.857 4.54274 19.1073C4.85076 19.1983 4.91592 19.3406 4.91592 19.6193C4.91592 21.7355 4.91592 23.8516 4.91592 25.9621C4.91592 28.0726 4.91592 30.1603 4.91592 32.2594C4.8569 32.646 4.95586 33.0396 5.19214 33.3577C5.42842 33.6758 5.78371 33.8938 6.18357 33.966L25.6067 40.5307C26.1128 40.7126 26.6704 40.7126 27.1765 40.5307L46.5108 34.0058C46.9391 33.9242 47.318 33.687 47.5685 33.3436C47.819 33.0002 47.9218 32.5771 47.8555 32.1627C47.8555 27.9986 47.8555 23.8346 47.8555 19.6477C47.8348 19.5257 47.8647 19.4007 47.9389 19.2997C48.0131 19.1986 48.1256 19.1295 48.2523 19.1073C49.0224 18.8741 49.7629 18.5385 50.5388 18.3678C50.7723 18.3123 50.9892 18.2058 51.1728 18.0566C51.3564 17.9074 51.5017 17.7196 51.5974 17.5077C51.6931 17.2958 51.7367 17.0656 51.7246 16.8349C51.7126 16.6042 51.6453 16.3793 51.528 16.1777ZM4.89221 16.1777C4.57826 16.0696 4.60193 15.9672 4.7204 15.7396C5.50231 14.2208 6.27832 12.7076 7.04838 11.1887C7.16092 10.9726 7.24382 10.8872 7.53407 10.984C13.0627 12.8802 18.6012 14.7479 24.1496 16.5873L24.3273 16.6669C23.498 18.3109 22.6687 19.9265 21.8572 21.5534C21.7505 21.7696 21.6439 21.8151 21.4129 21.7412C15.9119 19.8942 10.405 18.0473 4.89221 16.2004V16.1777ZM24.8367 37.1858C24.7064 37.237 24.582 37.1403 24.4517 37.1004L8.31009 31.6223C8.09684 31.5483 7.90726 31.5085 7.90726 31.19C7.90726 27.5777 7.90726 23.9654 7.90726 20.2735L13.8901 22.2759L21.7328 24.904C21.93 24.9971 22.1455 25.0489 22.3651 25.056C22.5847 25.0631 22.8034 25.0253 23.0066 24.9452C23.2099 24.8651 23.3931 24.7444 23.5442 24.5912C23.6953 24.438 23.8108 24.2557 23.883 24.0564C24.1851 23.4876 24.4754 22.8675 24.8248 22.1621L24.8367 37.1858ZM26.8744 14.1753C26.6175 14.2934 26.324 14.3157 26.051 14.2379C21.093 12.5313 16.1291 10.8702 11.1652 9.18635L10.9342 9.10671L18.5577 6.54683L25.9621 4.0609C26.1875 3.96244 26.4432 3.94824 26.6789 4.02108L41.4225 9.02138C41.5114 9.02138 41.6298 9.02138 41.695 9.19204L41.2567 9.35132L26.8744 14.1753ZM44.5027 31.7304L28.2487 37.2199L27.8932 37.3166V22.2019L28.8114 24.0337C29.3326 25.0747 29.9961 25.3307 31.0978 24.9495L44.1711 20.5693L44.8167 20.3588C44.8167 20.5238 44.8167 20.6432 44.8167 20.7684C44.8167 24.2555 44.8167 27.7427 44.8167 31.2298C44.8463 31.4915 44.8048 31.6507 44.5027 31.7531V31.7304ZM47.8495 16.2516C42.3525 18.0796 36.8575 19.9151 31.3644 21.7582L31.1808 21.8322C31.0149 21.8834 30.9853 21.7468 30.9379 21.6558C30.1323 20.0801 29.3385 18.4986 28.5685 16.9229C28.3789 16.5531 28.7284 16.5986 28.8824 16.5474C31.8995 15.5311 34.9185 14.5204 37.9395 13.5154C40.3504 12.7076 42.7612 11.9055 45.1662 11.0807C45.492 10.9669 45.6282 11.0238 45.7585 11.3139C46.499 12.81 47.2631 14.3004 48.0331 15.7852C48.1516 16.0525 48.1872 16.1606 47.8495 16.2744V16.2516Z" fill="#6161C1" fill-opacity="0.5"/>
</svg>
